<svg id="Group_504" data-name="Group 504" xmlns="http://www.w3.org/2000/svg" xmlns:xlink="http://www.w3.org/1999/xlink" width="250.007" height="237.057" viewBox="0 0 250.007 237.057">
  <defs>
    <clipPath id="clip-path">
      <path id="Path_315" data-name="Path 315" d="M-766.25,3478.1c1.106,3.737,4.229,3.165,7.968,2.059a7.055,7.055,0,0,0,4.766-8.766,7.056,7.056,0,0,0-8.766-4.766C-766.02,3467.733-767.355,3474.365-766.25,3478.1Z" transform="translate(766.626 -3466.338)" fill="#fca89e"/>
    </clipPath>
    <clipPath id="clip-path-2">
      <path id="Path_320" data-name="Path 320" d="M-758.429,3538.052h-21.682l-2.708-28.8c-.242-2.35,2.028-4.366,4.916-4.366h17.265c2.888,0,5.158,2.017,4.916,4.366Z" transform="translate(782.837 -3504.886)" fill="none"/>
    </clipPath>
    <clipPath id="clip-path-3">
      <path id="Path_337" data-name="Path 337" d="M-1088.35,3488.748c-1.036,3.5-3.964,2.966-7.465,1.931a6.611,6.611,0,0,1-4.467-8.215,6.612,6.612,0,0,1,8.214-4.467C-1088.566,3479.031-1087.316,3485.245-1088.35,3488.748Z" transform="translate(1100.555 -3477.724)" fill="#fca89e"/>
    </clipPath>
    <clipPath id="clip-path-4">
      <path id="Path_350" data-name="Path 350" d="M-870.149,3534.437h-17.486l-1.169-21.316c-.18-1.738,1.5-3.23,3.638-3.23h13.776c2.138,0,3.818,1.492,3.638,3.23Z" transform="translate(888.817 -3509.891)" fill="#da3f3a"/>
    </clipPath>
    <clipPath id="clip-path-5">
      <path id="Path_360" data-name="Path 360" d="M-881.467,3483.388c-.491,3.385,2.21,4.075,5.594,4.566a6.194,6.194,0,0,0,7.018-5.239,6.193,6.193,0,0,0-5.239-7.016C-877.478,3475.208-880.975,3480-881.467,3483.388Z" transform="translate(881.525 -3475.664)" fill="#fca89e"/>
    </clipPath>
    <clipPath id="clip-path-6">
      <path id="Path_367" data-name="Path 367" d="M-1200.67,3471.029c-1.127,3.813-4.314,3.229-8.126,2.1a7.2,7.2,0,0,1-4.865-8.942,7.2,7.2,0,0,1,8.944-4.863C-1200.906,3460.453-1199.544,3467.217-1200.67,3471.029Z" transform="translate(1213.958 -3459.029)" fill="#fca89e"/>
    </clipPath>
    <clipPath id="clip-path-7">
      <path id="Path_372" data-name="Path 372" d="M-1226.241,3532.187h22.12l2.761-29.379c.247-2.4-2.07-4.453-5.015-4.453h-17.612c-2.945,0-5.262,2.056-5.015,4.453Z" transform="translate(1229.021 -3498.354)" fill="none"/>
    </clipPath>
  </defs>
  <g id="Group_317" data-name="Group 317" transform="translate(11.62 0)" opacity="0.92">
    <g id="Group_316" data-name="Group 316">
      <g id="Group_315" data-name="Group 315">
        <path id="Path_307" data-name="Path 307" d="M-994.719,3493.9a118.53,118.53,0,0,1-118.529,118.53,118.529,118.529,0,0,1-118.528-118.53,118.526,118.526,0,0,1,118.528-118.527A118.527,118.527,0,0,1-994.719,3493.9Z" transform="translate(1231.776 -3375.375)" fill="#ffc7c7"/>
      </g>
    </g>
  </g>
  <g id="Group_503" data-name="Group 503" transform="translate(0 37.082)">
    <g id="Group_355" data-name="Group 355" transform="translate(194.487 3.24)">
      <g id="Group_320" data-name="Group 320" transform="translate(44.562 51.543)">
        <g id="Group_319" data-name="Group 319">
          <g id="Group_318" data-name="Group 318">
            <path id="Path_308" data-name="Path 308" d="M-714.255,3585.795h-3.284a1.182,1.182,0,0,1-1.183-1.183v-1.742l4.381-.257Z" transform="translate(718.721 -3582.613)" fill="#f7958d"/>
          </g>
        </g>
      </g>
      <g id="Group_323" data-name="Group 323" transform="translate(0.921 52.087)">
        <g id="Group_322" data-name="Group 322">
          <g id="Group_321" data-name="Group 321">
            <path id="Path_309" data-name="Path 309" d="M-812.855,3590.3l-2.669,1.232c-.655,0-1.647-5.043-1.647-5.7V3584.1l4.381-.258Z" transform="translate(817.171 -3583.841)" fill="#f7958d"/>
          </g>
        </g>
      </g>
      <g id="Group_326" data-name="Group 326" transform="translate(18.866 50.253)">
        <g id="Group_325" data-name="Group 325">
          <g id="Group_324" data-name="Group 324">
            <path id="Path_310" data-name="Path 310" d="M-755.007,3579.705h-21.682l.578,46.321h4.141s3.135-23.3,4.316-36.182h2.871l.862,36.182h4.141s4.888-36.33,4.756-43.334A26.775,26.775,0,0,0-755.007,3579.705Z" transform="translate(776.689 -3579.705)" fill="#0e97cd"/>
          </g>
        </g>
      </g>
      <g id="Group_329" data-name="Group 329" transform="translate(16.14 17.087)">
        <g id="Group_328" data-name="Group 328">
          <g id="Group_327" data-name="Group 327">
            <path id="Path_311" data-name="Path 311" d="M-758.429,3538.052h-21.682l-2.708-28.8c-.242-2.35,2.028-4.366,4.916-4.366h17.265c2.888,0,5.158,2.017,4.916,4.366Z" transform="translate(782.837 -3504.886)" fill="#2a2873"/>
          </g>
        </g>
      </g>
      <g id="Group_332" data-name="Group 332" transform="translate(26.09 11.766)">
        <g id="Group_331" data-name="Group 331">
          <g id="Group_330" data-name="Group 330">
            <path id="Path_312" data-name="Path 312" d="M-757.8,3503.508a.9.9,0,0,0,1.655.069c.961-1.979,3.085-4.935,3.085-5.562v-4.25c0-.962-1.435-.881-2.29-.881h-2.75c-.853,0-2.29.78-2.29,1.744v3.388C-760.391,3498.636-758.569,3501.529-757.8,3503.508Z" transform="translate(760.391 -3492.882)" fill="#f7958d"/>
          </g>
        </g>
      </g>
      <g id="Group_337" data-name="Group 337" transform="translate(23.326)">
        <path id="Path_313" data-name="Path 313" d="M-766.25,3478.1c1.106,3.737,4.229,3.165,7.968,2.059a7.055,7.055,0,0,0,4.766-8.766,7.056,7.056,0,0,0-8.766-4.766C-766.02,3467.733-767.355,3474.365-766.25,3478.1Z" transform="translate(766.626 -3466.338)" fill="#fca89e"/>
        <g id="Group_336" data-name="Group 336" clip-path="url(#clip-path)">
          <g id="Group_335" data-name="Group 335" transform="translate(-4.627 -1.815)">
            <g id="Group_334" data-name="Group 334">
              <g id="Group_333" data-name="Group 333">
                <path id="Path_314" data-name="Path 314" d="M-764.29,3467.837s0,2.491.344,2.491a2.42,2.42,0,0,1,2.577.688c.946,1.2-.087,2.406-1.2,2.663s-.344,3.18,2.318,2.664,3.61-6.788,2.235-9.193-5.756-5.07-7.3-4.9-11.744,5.663-11.744,5.663Z" transform="translate(777.065 -3462.244)" fill="#2a2873"/>
              </g>
            </g>
          </g>
        </g>
      </g>
      <g id="Group_340" data-name="Group 340" transform="translate(0 20.159)">
        <g id="Group_339" data-name="Group 339">
          <g id="Group_338" data-name="Group 338">
            <path id="Path_316" data-name="Path 316" d="M-802.944,3511.816l-6.54,17.592-9.764,14.638,5.133,1.13a86.057,86.057,0,0,0,9.652-9.652,35.155,35.155,0,0,0,4.774-8.307c.772-1.289,1.126-14.95,1.126-14.95Z" transform="translate(819.248 -3511.816)" fill="#2a2873"/>
          </g>
        </g>
      </g>
      <g id="Group_343" data-name="Group 343" transform="translate(38.252 18.033)">
        <g id="Group_342" data-name="Group 342">
          <g id="Group_341" data-name="Group 341">
            <path id="Path_317" data-name="Path 317" d="M-729.739,3507.019l12.718,10.933a3.831,3.831,0,0,1,1.123,4.158l-6.366,18.418-4.381.257,3.351-17.527s-9-6.23-9.279-6.7c-.774-1.289-.13-6.959-.13-6.959Z" transform="translate(732.955 -3507.019)" fill="#2a2873"/>
          </g>
        </g>
      </g>
      <g id="Group_346" data-name="Group 346" transform="translate(14.511 96.515)">
        <g id="Group_345" data-name="Group 345">
          <g id="Group_344" data-name="Group 344">
            <path id="Path_318" data-name="Path 318" d="M-781.636,3684.066h4.209v3.229h-8.539c-.563,0-.757-1.266-.264-1.539Z" transform="translate(786.512 -3684.066)" fill="#2a2873"/>
          </g>
        </g>
      </g>
      <g id="Group_349" data-name="Group 349" transform="translate(26.884 96.515)">
        <g id="Group_348" data-name="Group 348">
          <g id="Group_347" data-name="Group 347">
            <path id="Path_319" data-name="Path 319" d="M-753.725,3684.066h4.209v3.229h-8.539c-.563,0-.757-1.266-.264-1.539Z" transform="translate(758.601 -3684.066)" fill="#2a2873"/>
          </g>
        </g>
      </g>
      <g id="Group_354" data-name="Group 354" transform="translate(16.14 17.087)">
        <g id="Group_353" data-name="Group 353" clip-path="url(#clip-path-2)">
          <g id="Group_352" data-name="Group 352" transform="translate(1.428 8.291)">
            <g id="Group_351" data-name="Group 351">
              <g id="Group_350" data-name="Group 350">
                <rect id="Rectangle_102" data-name="Rectangle 102" width="0.371" height="15.724" fill="#0e97cd"/>
              </g>
            </g>
          </g>
        </g>
      </g>
    </g>
    <g id="Group_381" data-name="Group 381" transform="translate(95.579 6.623)">
      <g id="Group_358" data-name="Group 358" transform="translate(7.168 54.127)">
        <g id="Group_357" data-name="Group 357">
          <g id="Group_356" data-name="Group 356">
            <path id="Path_321" data-name="Path 321" d="M-1017.636,3596.075h22.282l-.594,47.6h-4.256s-3.22-23.947-4.435-37.182h-2.95l-2.994,17.4-12.373,13.29-3.249-2.857,9.383-14.378s-.856-17.729-.8-20.8A27.931,27.931,0,0,1-1017.636,3596.075Z" transform="translate(1026.205 -3596.075)" fill="#a2ccda"/>
          </g>
        </g>
      </g>
      <g id="Group_361" data-name="Group 361" transform="translate(12.936 20.044)">
        <g id="Group_360" data-name="Group 360">
          <g id="Group_359" data-name="Group 359">
            <path id="Path_322" data-name="Path 322" d="M-1010.392,3553.27h22.282l2.781-29.6c.249-2.414-2.083-4.486-5.051-4.486h-17.742c-2.968,0-5.3,2.072-5.053,4.486Z" transform="translate(1013.193 -3519.187)" fill="#ff645f"/>
          </g>
        </g>
      </g>
      <g id="Group_364" data-name="Group 364" transform="translate(23.061 14.575)">
        <g id="Group_363" data-name="Group 363">
          <g id="Group_362" data-name="Group 362">
            <path id="Path_323" data-name="Path 323" d="M-986.426,3515.455c-3.947,0-3.924-2.684-3.924-3.328v-4.367c0-.99,1.475-.906,2.352-.906h2.826c.877,0,2.353.8,2.353,1.791v3.483A3.361,3.361,0,0,1-986.426,3515.455Z" transform="translate(990.35 -3506.851)" fill="#f7958d"/>
          </g>
        </g>
      </g>
      <g id="Group_365" data-name="Group 365" transform="translate(19.662 2.483)">
        <path id="Path_324" data-name="Path 324" d="M-984.633,3491.661c-1.134,3.841-4.346,3.252-8.187,2.118a7.252,7.252,0,0,1-4.9-9.009,7.252,7.252,0,0,1,9.008-4.9C-984.869,3481.007-983.5,3487.821-984.633,3491.661Z" transform="translate(998.018 -3479.572)" fill="#fca89e"/>
      </g>
      <g id="Group_368" data-name="Group 368" transform="translate(0 21.015)">
        <g id="Group_367" data-name="Group 367">
          <g id="Group_366" data-name="Group 366">
            <path id="Path_325" data-name="Path 325" d="M-1027.583,3521.378s-10.3,10.989-13.938,14.45c-2,1.91,0,3.342,1.146,4.774,3.177,3.972,13.464,11.076,13.464,11.076l-.573-6.015-6.207-7.257s8.731-6.742,9.022-7.227c.8-1.325.132-7.152.132-7.152Z" transform="translate(1042.374 -3521.378)" fill="#ff645f"/>
          </g>
        </g>
      </g>
      <g id="Group_371" data-name="Group 371" transform="translate(35.731 21.015)">
        <g id="Group_370" data-name="Group 370">
          <g id="Group_369" data-name="Group 369">
            <path id="Path_326" data-name="Path 326" d="M-958.464,3521.378s10.3,10.989,13.938,14.45c2,1.91,0,3.342-1.146,4.774-3.177,3.972-15.065,11.327-15.065,11.327l.205-6.366,8.175-7.157s-8.729-6.742-9.02-7.227c-.795-1.325-.133-7.152-.133-7.152Z" transform="translate(961.769 -3521.378)" fill="#ff645f"/>
          </g>
        </g>
      </g>
      <g id="Group_374" data-name="Group 374" transform="translate(33.156 101.667)">
        <g id="Group_373" data-name="Group 373">
          <g id="Group_372" data-name="Group 372">
            <path id="Path_327" data-name="Path 327" d="M-963.252,3703.32h-4.326v3.319h8.776c.578,0,.777-1.3.271-1.582Z" transform="translate(967.578 -3703.32)" fill="#2a2873"/>
          </g>
        </g>
      </g>
      <g id="Group_377" data-name="Group 377" transform="translate(4.976 92.377)">
        <g id="Group_376" data-name="Group 376">
          <g id="Group_375" data-name="Group 375">
            <path id="Path_328" data-name="Path 328" d="M-1025.709,3685.22l-3.249-2.857-2.192,2.491,6.59,5.8c.434.382,1.443-.462,1.248-1.008Z" transform="translate(1031.149 -3682.363)" fill="#2a2873"/>
          </g>
        </g>
      </g>
      <g id="Group_380" data-name="Group 380" transform="translate(17.745)">
        <g id="Group_379" data-name="Group 379">
          <g id="Group_378" data-name="Group 378">
            <path id="Path_329" data-name="Path 329" d="M-989.358,3474.417c-1.72-1.395-3.342.86-5.252,1.528s-5.2-1.1-7.018.812.381,5.347.476,6.684-.872,4.458.288,6.3c1.051,1.671,3.677,2.625,6.588,1.241,1.906-.906-.477-3.915-.858-5.538s-.1-3.628,2.2-1.957c1.037.757,2.872,1.62,2.721-.955C-990.408,3479.287-985.586,3477.473-989.358,3474.417Z" transform="translate(1002.343 -3473.971)" fill="#4396ca"/>
          </g>
        </g>
      </g>
    </g>
    <g id="Group_420" data-name="Group 420" transform="translate(60.625 3.546)">
      <g id="Group_384" data-name="Group 384" transform="translate(19.546 23.251)">
        <g id="Group_383" data-name="Group 383">
          <g id="Group_382" data-name="Group 382">
            <path id="Path_330" data-name="Path 330" d="M-1073.1,3520.1c-1.45.806-2.548,4.51-3.419,11.761s-.683,8.5-.272,9.317,7.228,10.459,7.228,10.459l3.727-.428-4.7-13.865s3.786-9.04,2.2-17.347C-1068.572,3518.771-1073.1,3520.1-1073.1,3520.1Z" transform="translate(1077.132 -3519.481)" fill="#2eb3db"/>
          </g>
        </g>
      </g>
      <g id="Group_387" data-name="Group 387" transform="translate(5.132 4.775)">
        <g id="Group_386" data-name="Group 386">
          <g id="Group_385" data-name="Group 385">
            <path id="Path_331" data-name="Path 331" d="M-1098.97,3477.89a8.468,8.468,0,0,0-9.07,5.131,15.609,15.609,0,0,0-1.029,6.884c.053,1.007-1.193,10.75-.182,10.75l7.146-6.963Z" transform="translate(1109.648 -3477.801)" fill="#4a4a99"/>
          </g>
        </g>
      </g>
      <g id="Group_390" data-name="Group 390" transform="translate(5.547 51.831)">
        <g id="Group_389" data-name="Group 389">
          <g id="Group_388" data-name="Group 388">
            <path id="Path_332" data-name="Path 332" d="M-1108.676,3583.954h20.317l-.541,43.4h-3.88s-2.939-26.263-4.046-38.332h-2.689l-.809,38.332h-3.88s-4.579-34.043-4.457-40.606A25.394,25.394,0,0,1-1108.676,3583.954Z" transform="translate(1108.712 -3583.954)" fill="#2a2873"/>
          </g>
        </g>
      </g>
      <g id="Group_393" data-name="Group 393" transform="translate(3.03 20.753)">
        <g id="Group_392" data-name="Group 392">
          <g id="Group_391" data-name="Group 391">
            <path id="Path_333" data-name="Path 333" d="M-1111.837,3544.924h20.317l-2.8-10.374,5.334-16.613c.227-2.2-1.9-4.091-4.607-4.091h-16.178c-2.706,0-4.833,1.889-4.605,4.091l5.764,16.613Z" transform="translate(1114.39 -3513.846)" fill="#0e97cd"/>
          </g>
        </g>
      </g>
      <g id="Group_396" data-name="Group 396" transform="translate(12.26 15.768)">
        <g id="Group_395" data-name="Group 395">
          <g id="Group_394" data-name="Group 394">
            <path id="Path_334" data-name="Path 334" d="M-1089.989,3510.443c-3.6,0-3.578-2.447-3.578-3.035v-3.982c0-.9,1.347-.825,2.147-.825h2.575c.8,0,2.146.73,2.146,1.632v3.175A3.065,3.065,0,0,1-1089.989,3510.443Z" transform="translate(1093.567 -3502.599)" fill="#f7958d"/>
          </g>
        </g>
      </g>
      <g id="Group_401" data-name="Group 401" transform="translate(9.163 4.741)">
        <path id="Path_335" data-name="Path 335" d="M-1088.35,3488.748c-1.036,3.5-3.964,2.966-7.465,1.931a6.611,6.611,0,0,1-4.467-8.215,6.612,6.612,0,0,1,8.214-4.467C-1088.566,3479.031-1087.316,3485.245-1088.35,3488.748Z" transform="translate(1100.555 -3477.724)" fill="#fca89e"/>
        <g id="Group_400" data-name="Group 400" clip-path="url(#clip-path-3)">
          <g id="Group_399" data-name="Group 399" transform="translate(-1.734 -1.7)">
            <g id="Group_398" data-name="Group 398">
              <g id="Group_397" data-name="Group 397">
                <path id="Path_336" data-name="Path 336" d="M-1097.811,3479.129s0,2.335-.322,2.335a2.268,2.268,0,0,0-2.416.644c-.885,1.127-.635,2.322.411,2.564s.359,9.645-2.138,9.162-2.7-13.1-1.411-15.35,5.393-4.75,6.842-4.588,11,5.306,11,5.306Z" transform="translate(1104.467 -3473.889)" fill="#4a4a99"/>
              </g>
            </g>
          </g>
        </g>
      </g>
      <g id="Group_404" data-name="Group 404" transform="translate(21.466 95.18)">
        <g id="Group_403" data-name="Group 403">
          <g id="Group_402" data-name="Group 402">
            <path id="Path_338" data-name="Path 338" d="M-1068.854,3681.745h-3.946v3.026h8c.528,0,.71-1.187.247-1.442Z" transform="translate(1072.8 -3681.745)" fill="#fc6262"/>
          </g>
        </g>
      </g>
      <g id="Group_407" data-name="Group 407" transform="translate(9.872 95.18)">
        <g id="Group_406" data-name="Group 406">
          <g id="Group_405" data-name="Group 405">
            <path id="Path_339" data-name="Path 339" d="M-1095.009,3681.745h-3.946v3.026h8c.528,0,.708-1.187.247-1.442Z" transform="translate(1098.955 -3681.745)" fill="#fc6262"/>
          </g>
        </g>
      </g>
      <g id="Group_410" data-name="Group 410" transform="translate(8.075 53.886)">
        <g id="Group_409" data-name="Group 409">
          <g id="Group_408" data-name="Group 408">
            <path id="Path_340" data-name="Path 340" d="M-1103.01,3590.1l3.6-1.51s1.079,3.155-.7,4.265C-1102.342,3594.248-1103.01,3590.1-1103.01,3590.1Z" transform="translate(1103.01 -3588.591)" fill="#f7958d"/>
          </g>
        </g>
      </g>
      <g id="Group_413" data-name="Group 413" transform="translate(0 22.185)">
        <g id="Group_412" data-name="Group 412">
          <g id="Group_411" data-name="Group 411">
            <path id="Path_341" data-name="Path 341" d="M-1117.193,3517.077c-1.452.806-2.543,4.979-3.414,12.229s-.683,8.5-.273,9.318,7.729,11.664,7.729,11.664l3.6-1.51-6.446-12.4s1.857-9.868,1.572-13.172A10.3,10.3,0,0,0-1117.193,3517.077Z" transform="translate(1121.225 -3517.077)" fill="#2eb3db"/>
          </g>
        </g>
      </g>
      <g id="Group_416" data-name="Group 416" transform="translate(27.129 54.985)">
        <g id="Group_415" data-name="Group 415">
          <g id="Group_414" data-name="Group 414">
            <path id="Path_342" data-name="Path 342" d="M-1056.308,3591.069l-3.717.4s.224,3.327,2.295,3.663C-1055.132,3595.551-1056.308,3591.069-1056.308,3591.069Z" transform="translate(1060.025 -3591.069)" fill="#f7958d"/>
          </g>
        </g>
      </g>
      <g id="Group_419" data-name="Group 419" transform="translate(12.74)">
        <g id="Group_418" data-name="Group 418">
          <g id="Group_417" data-name="Group 417">
            <path id="Path_343" data-name="Path 343" d="M-1090.422,3472.9c-1.1,0-3.208-3.3-1.283-5.131a2.974,2.974,0,0,1,4.856,1.741C-1086.667,3472.718-1088.04,3472.9-1090.422,3472.9Z" transform="translate(1092.485 -3467.029)" fill="#4a4a99"/>
          </g>
        </g>
      </g>
    </g>
    <g id="Group_464" data-name="Group 464" transform="translate(150.13 3.709)">
      <g id="Group_423" data-name="Group 423" transform="translate(14.022 56.207)">
        <g id="Group_422" data-name="Group 422">
          <g id="Group_421" data-name="Group 421">
            <path id="Path_344" data-name="Path 344" d="M-868.948,3594.194H-887.68l.5,40.021h3.578s2.708-20.133,3.728-31.261h2.481l.745,31.261h3.578s4.223-31.388,4.109-37.439A23.5,23.5,0,0,0-868.948,3594.194Z" transform="translate(887.68 -3594.194)" fill="#f7958d"/>
          </g>
        </g>
      </g>
      <g id="Group_426" data-name="Group 426" transform="translate(9.272 96.171)">
        <g id="Group_425" data-name="Group 425">
          <g id="Group_424" data-name="Group 424">
            <path id="Path_345" data-name="Path 345" d="M-893.709,3684.347h4.046v3.1h-8.206c-.543,0-.728-1.217-.254-1.479Z" transform="translate(898.395 -3684.347)" fill="#ff645f"/>
          </g>
        </g>
      </g>
      <g id="Group_429" data-name="Group 429" transform="translate(19.989 96.171)">
        <g id="Group_428" data-name="Group 428">
          <g id="Group_427" data-name="Group 427">
            <path id="Path_346" data-name="Path 346" d="M-869.531,3684.347h4.045v3.1h-8.206c-.543,0-.728-1.217-.254-1.479Z" transform="translate(874.218 -3684.347)" fill="#ff645f"/>
          </g>
        </g>
      </g>
      <g id="Group_432" data-name="Group 432" transform="translate(9.689 43.148)">
        <g id="Group_431" data-name="Group 431">
          <g id="Group_430" data-name="Group 430">
            <path id="Path_347" data-name="Path 347" d="M-892.443,3564.734h17.486s3.862,1.813,4.32,7.688c.835,10.706-5.87,29.542-5.87,29.542h-16.5s-5.483-22.479-4.271-29.542C-896.306,3566.751-892.443,3564.734-892.443,3564.734Z" transform="translate(897.453 -3564.734)" fill="#823024"/>
          </g>
        </g>
      </g>
      <g id="Group_437" data-name="Group 437" transform="translate(13.518 18.837)">
        <path id="Path_348" data-name="Path 348" d="M-870.149,3534.437h-17.486l-1.169-21.316c-.18-1.738,1.5-3.23,3.638-3.23h13.776c2.138,0,3.818,1.492,3.638,3.23Z" transform="translate(888.817 -3509.891)" fill="#da3f3a"/>
        <g id="Group_436" data-name="Group 436" clip-path="url(#clip-path-4)">
          <g id="Group_435" data-name="Group 435" transform="translate(3.862 -6.994)">
            <g id="Group_434" data-name="Group 434">
              <g id="Group_433" data-name="Group 433">
                <path id="Path_349" data-name="Path 349" d="M-867.323,3500.5a6.391,6.391,0,0,1-6.391,6.391,6.391,6.391,0,0,1-6.391-6.391,6.391,6.391,0,0,1,6.391-6.391A6.391,6.391,0,0,1-867.323,3500.5Z" transform="translate(880.105 -3494.113)" fill="#f7958d"/>
              </g>
            </g>
          </g>
        </g>
      </g>
      <g id="Group_440" data-name="Group 440" transform="translate(0 15.809)">
        <g id="Group_439" data-name="Group 439">
          <g id="Group_438" data-name="Group 438">
            <path id="Path_351" data-name="Path 351" d="M-918.663,3504.275l1.413-1a1.185,1.185,0,0,1,1.652.284l2.221,3.144-3.309,2.424-2.33-2.694A1.534,1.534,0,0,1-918.663,3504.275Z" transform="translate(919.311 -3503.058)" fill="#f7958d"/>
          </g>
        </g>
      </g>
      <g id="Group_444" data-name="Group 444" transform="translate(2.626 19.142)">
        <g id="Group_443" data-name="Group 443">
          <g id="Group_442" data-name="Group 442">
            <g id="Group_441" data-name="Group 441">
              <path id="Path_352" data-name="Path 352" d="M-900.277,3510.578c-1.726.671-2.876,2.685-3.548,4.986a58.115,58.115,0,0,1-3.259,7.189l-2.993-11.863-3.309,2.424s1.537,12.521,3.523,16.822c1.149,2.492,6.135,1.15,10.161-7.766C-898.243,3519.135-900.277,3510.578-900.277,3510.578Z" transform="translate(913.387 -3510.578)" fill="#da3f3a"/>
            </g>
          </g>
        </g>
      </g>
      <g id="Group_448" data-name="Group 448" transform="translate(31.17 19.525)">
        <g id="Group_447" data-name="Group 447">
          <g id="Group_446" data-name="Group 446">
            <g id="Group_445" data-name="Group 445">
              <path id="Path_353" data-name="Path 353" d="M-846.981,3511.443a20.815,20.815,0,0,1,4.6,5.465c2.013,3.451,6.5,13.856,6.982,14.815s2.222,13.85,2.222,13.85l-3.643.767-5.13-15-7.046-11.169Z" transform="translate(848.994 -3511.443)" fill="#da3f3a"/>
            </g>
          </g>
        </g>
      </g>
      <g id="Group_451" data-name="Group 451" transform="translate(43.163 53.655)">
        <g id="Group_450" data-name="Group 450">
          <g id="Group_449" data-name="Group 449">
            <path id="Path_354" data-name="Path 354" d="M-818.114,3588.435l-3.643.767s-.336,3.452-.1,3.739a9.692,9.692,0,0,0,2.11,1.725c.528.192,2.828-.766,3.212-1.15S-817.97,3588.482-818.114,3588.435Z" transform="translate(821.94 -3588.435)" fill="#f7958d"/>
          </g>
        </g>
      </g>
      <g id="Group_454" data-name="Group 454" transform="translate(27.496)">
        <g id="Group_453" data-name="Group 453">
          <g id="Group_452" data-name="Group 452">
            <path id="Path_355" data-name="Path 355" d="M-857.284,3473.659c0-.639,4.217-6.263,4.6-6.263s3.833,5.879,3.707,6.519-8.18,1.279-8.18,1.279Z" transform="translate(857.284 -3467.396)" fill="#823024"/>
          </g>
        </g>
      </g>
      <g id="Group_457" data-name="Group 457" transform="translate(21.156 14.258)">
        <g id="Group_456" data-name="Group 456">
          <g id="Group_455" data-name="Group 455">
            <path id="Path_356" data-name="Path 356" d="M-870.229,3505.592h2.414a1.451,1.451,0,0,0,1.356-1.529v-2.973a1.451,1.451,0,0,0-1.356-1.529h-2.414a1.45,1.45,0,0,0-1.356,1.529v2.973A1.45,1.45,0,0,0-870.229,3505.592Z" transform="translate(871.585 -3499.56)" fill="#f7958d"/>
          </g>
        </g>
      </g>
      <g id="Group_458" data-name="Group 458" transform="translate(16.75 3.665)">
        <path id="Path_357" data-name="Path 357" d="M-881.467,3483.388c-.491,3.385,2.21,4.075,5.594,4.566a6.194,6.194,0,0,0,7.018-5.239,6.193,6.193,0,0,0-5.239-7.016C-877.478,3475.208-880.975,3480-881.467,3483.388Z" transform="translate(881.525 -3475.664)" fill="#ff8860"/>
      </g>
      <g id="Group_463" data-name="Group 463" transform="translate(16.75 3.665)">
        <path id="Path_358" data-name="Path 358" d="M-881.467,3483.388c-.491,3.385,2.21,4.075,5.594,4.566a6.194,6.194,0,0,0,7.018-5.239,6.193,6.193,0,0,0-5.239-7.016C-877.478,3475.208-880.975,3480-881.467,3483.388Z" transform="translate(881.525 -3475.664)" fill="#fca89e"/>
        <g id="Group_462" data-name="Group 462" clip-path="url(#clip-path-5)">
          <g id="Group_461" data-name="Group 461" transform="translate(0.92 -3.285)">
            <g id="Group_460" data-name="Group 460">
              <g id="Group_459" data-name="Group 459">
                <path id="Path_359" data-name="Path 359" d="M-879.449,3474.473l8.267,4.509s1.573-1.738,2.258-.015c.593,1.49-1.767,2.359-1.854,2.8-.71,3.683,2.166,5.823,4.266,1.624s1.333-11.219.783-11.472-5.734-3.473-6.147-3.662-5.5,3.63-6.053,3.377S-879.449,3474.473-879.449,3474.473Z" transform="translate(879.449 -3468.254)" fill="#823024"/>
              </g>
            </g>
          </g>
        </g>
      </g>
    </g>
    <g id="Group_502" data-name="Group 502">
      <g id="Group_467" data-name="Group 467" transform="translate(54.971 17.662)">
        <g id="Group_466" data-name="Group 466">
          <g id="Group_465" data-name="Group 465">
            <path id="Path_361" data-name="Path 361" d="M-1129.837,3503.631c.6-.906.87-3.361.122-3.8s-2.75-1.8-3.413-.191l-.853,3.255,3.373,1.9Z" transform="translate(1133.981 -3498.872)" fill="#f7958d"/>
          </g>
        </g>
      </g>
      <g id="Group_470" data-name="Group 470" transform="translate(15.583 51.265)">
        <g id="Group_469" data-name="Group 469">
          <g id="Group_468" data-name="Group 468">
            <path id="Path_362" data-name="Path 362" d="M-1222.8,3574.677h22.12l-.591,47.255h-4.223s-3.2-23.773-4.4-36.911h-2.928l-.88,36.911h-4.224s-4.987-37.062-4.853-44.207A27.874,27.874,0,0,1-1222.8,3574.677Z" transform="translate(1222.836 -3574.677)" fill="#ff645f"/>
          </g>
        </g>
      </g>
      <g id="Group_473" data-name="Group 473" transform="translate(12.841 17.432)">
        <g id="Group_472" data-name="Group 472">
          <g id="Group_471" data-name="Group 471">
            <path id="Path_363" data-name="Path 363" d="M-1226.241,3532.187h22.12l2.761-29.379c.247-2.4-2.07-4.453-5.015-4.453h-17.612c-2.945,0-5.262,2.056-5.015,4.453Z" transform="translate(1229.021 -3498.354)" fill="#a2ccda"/>
          </g>
        </g>
      </g>
      <g id="Group_476" data-name="Group 476" transform="translate(22.892 12.003)">
        <g id="Group_475" data-name="Group 475">
          <g id="Group_474" data-name="Group 474">
            <path id="Path_364" data-name="Path 364" d="M-1202.452,3494.648c-3.919,0-3.9-2.665-3.9-3.3v-4.336c0-.982,1.465-.9,2.337-.9h2.8c.871,0,2.335.8,2.335,1.778v3.457A3.336,3.336,0,0,1-1202.452,3494.648Z" transform="translate(1206.347 -3486.107)" fill="#f7958d"/>
          </g>
        </g>
      </g>
      <g id="Group_481" data-name="Group 481" transform="translate(19.519)">
        <path id="Path_365" data-name="Path 365" d="M-1200.67,3471.029c-1.127,3.813-4.314,3.229-8.126,2.1a7.2,7.2,0,0,1-4.865-8.942,7.2,7.2,0,0,1,8.944-4.863C-1200.906,3460.453-1199.544,3467.217-1200.67,3471.029Z" transform="translate(1213.958 -3459.029)" fill="#fca89e"/>
        <g id="Group_480" data-name="Group 480" clip-path="url(#clip-path-6)">
          <g id="Group_479" data-name="Group 479" transform="translate(-1.679 -1.852)">
            <g id="Group_478" data-name="Group 478">
              <g id="Group_477" data-name="Group 477">
                <path id="Path_366" data-name="Path 366" d="M-1210.707,3460.558s0,2.541-.351,2.541a2.469,2.469,0,0,0-2.63.7c-.965,1.227.087,2.454,1.226,2.717s.351,3.243-2.365,2.717-3.682-6.924-2.28-9.379,5.873-5.172,7.45-5,11.982,5.777,11.982,5.777Z" transform="translate(1217.746 -3454.852)" fill="#ff645f"/>
              </g>
            </g>
          </g>
        </g>
      </g>
      <g id="Group_484" data-name="Group 484" transform="translate(35.927 18.52)">
        <g id="Group_483" data-name="Group 483">
          <g id="Group_482" data-name="Group 482">
            <path id="Path_368" data-name="Path 368" d="M-1172.259,3503.228l5.641,10.853,8.72-10.111c0-.379,4.044,1.138,3.54,2.022-.821,1.435-6.446,12.892-10.87,17.568-2.469,2.609-9.717-6.926-10.111-7.583-.63-1.05-1.483-7.55-1.6-11.177a1.6,1.6,0,0,1,1.433-1.638l1.306-2.351C-1173.478,3500.736-1172.513,3502.545-1172.259,3503.228Z" transform="translate(1176.942 -3500.808)" fill="#a2ccda"/>
          </g>
        </g>
      </g>
      <g id="Group_487" data-name="Group 487" transform="translate(0 18.396)">
        <g id="Group_486" data-name="Group 486">
          <g id="Group_485" data-name="Group 485">
            <path id="Path_369" data-name="Path 369" d="M-1243.307,3500.528s-10.227,10.909-13.834,14.344c-1.991,1.9,0,3.318,1.138,4.739,3.153,3.942,13.365,11,13.365,11l-.57-5.972-6.161-7.2s8.666-6.692,8.955-7.174c.789-1.315.132-7.1.132-7.1Z" transform="translate(1257.99 -3500.528)" fill="#a2ccda"/>
          </g>
        </g>
      </g>
      <g id="Group_490" data-name="Group 490" transform="translate(32.914 98.458)">
        <g id="Group_489" data-name="Group 489">
          <g id="Group_488" data-name="Group 488">
            <path id="Path_370" data-name="Path 370" d="M-1179.443,3681.14h-4.3v3.294h8.71c.576,0,.773-1.292.27-1.57Z" transform="translate(1183.738 -3681.14)" fill="#2a2873"/>
          </g>
        </g>
      </g>
      <g id="Group_493" data-name="Group 493" transform="translate(20.293 98.458)">
        <g id="Group_492" data-name="Group 492">
          <g id="Group_491" data-name="Group 491">
            <path id="Path_371" data-name="Path 371" d="M-1207.916,3681.14h-4.3v3.294h8.71c.576,0,.774-1.292.269-1.57Z" transform="translate(1212.211 -3681.14)" fill="#2a2873"/>
          </g>
        </g>
      </g>
      <g id="Group_498" data-name="Group 498" transform="translate(12.841 17.432)">
        <g id="Group_497" data-name="Group 497" clip-path="url(#clip-path-7)">
          <g id="Group_496" data-name="Group 496" transform="translate(25.843 8.458)">
            <g id="Group_495" data-name="Group 495">
              <g id="Group_494" data-name="Group 494">
                <rect id="Rectangle_103" data-name="Rectangle 103" width="0.379" height="16.04" fill="#0e97cd"/>
              </g>
            </g>
          </g>
        </g>
      </g>
      <g id="Group_501" data-name="Group 501" transform="translate(14.781 41.971)">
        <g id="Group_500" data-name="Group 500">
          <g id="Group_499" data-name="Group 499">
            <path id="Path_373" data-name="Path 373" d="M-1222.371,3559.931a1.965,1.965,0,0,0,1.639-2.261l-.359-3.474c-.039-.666-1.087-.465-1.754-.427l-1.8.474.57,5.972S-1222.8,3559.967-1222.371,3559.931Z" transform="translate(1224.646 -3553.712)" fill="#f7958d"/>
          </g>
        </g>
      </g>
    </g>
  </g>
</svg>
