<svg xmlns="http://www.w3.org/2000/svg" width="213" height="262.191" viewBox="0 0 213 262.191">
  <g id="Group_82" data-name="Group 82" transform="translate(-8731.998 -4723)">
    <path id="Path_170" data-name="Path 170" d="M8769.622,4985.192h123.146l.8-.23c6.911-2,14.354-4.359,18.521-10.225,4.742-6.679,3.726-15.847,1.215-23.644s-6.341-15.364-6.661-23.548c-.623-15.88,11.688-28.846,22.165-40.8s20.41-28.126,14.345-42.814c-7.6-18.4-34.862-21.112-44.08-38.758-9.04-17.309,4.03-38.937-1.272-57.731-4.3-15.24-20.817-25.108-36.637-24.41s-30.3,10.414-39.632,23.2-14.1,28.37-16.908,43.954c-2.663,14.787-3.728,29.943-8.291,44.258s-13.349,28.167-26.983,34.477c-10,4.63-22.3,5.156-30.088,12.958-8.46,8.478-8.2,22.215-5.823,33.953C8738.639,4941.485,8751.729,4966.069,8769.622,4985.192Z" fill="#ffa27c" opacity="0.5"/>
    <path id="Path_171" data-name="Path 171" d="M9112.068,4936.519c-5.183,10.713-12.516,20.243-18.169,30.716-2.51,4.649-4.731,9.683-4.659,14.966s3,10.846,8.011,12.508c4.844,1.605,10.164-.745,14.1-3.994s7.078-7.41,11.208-10.4c7.794-5.649,18.205-6.542,26.209-11.89,9.235-6.171,13.861-17.355,15.856-28.281,1.719-9.415,1.814-19.39-1.722-28.283-5.789-14.554-24.183-25.128-38.167-13.826C9114.835,4906.032,9117.449,4925.4,9112.068,4936.519Z" transform="translate(-224.757 -107.131)" fill="#ffa27c" opacity="0.5" style="mix-blend-mode: multiply;isolation: isolate"/>
    <path id="Path_172" data-name="Path 172" d="M8819.711,4809.778c-6.428,9.008-10.124,20.406-8.062,31.278s10.687,20.745,21.631,22.378c9.035,1.349,18.021-2.788,25.512-8.018,9.535-6.659,17.866-15.551,21.925-26.449s3.3-23.948-3.7-33.237C8859.688,4772.711,8832,4792.555,8819.711,4809.778Z" transform="translate(-49.752 -39.2)" fill="#ffa27c" opacity="0.5" style="mix-blend-mode: multiply;isolation: isolate"/>
    <g id="Group_81" data-name="Group 81" transform="translate(8758.255 4766.549)">
      <g id="Group_78" data-name="Group 78" transform="translate(85.832)">
        <path id="Path_173" data-name="Path 173" d="M9039.731,4911.321a8.484,8.484,0,0,1-.714-6.628c1.008-3.237,1.777-6.755.732-9.98-1.339.853-1.978,2.439-2.537,3.924a30.376,30.376,0,0,0-2,6.96,10.216,10.216,0,0,0,1.4,6.966C9038.155,4912.928,9038.771,4912.59,9039.731,4911.321Z" transform="translate(-9034.79 -4874.582)" fill="#f6b370"/>
        <path id="Path_174" data-name="Path 174" d="M9120.683,4860.118a10.053,10.053,0,1,1,1.7-18.745c3.581,1.729,6.22,5.583,10.182,5.936,1.651.146,3.489-.324,4.858.612,1.622,1.109,1.588,3.469,1.38,5.422,2.517,2.98,2.29,8.154-.038,11.284s-6.216,4.8-10.088,5.272c.55-2.2,1.585-4.591.568-6.62a5.787,5.787,0,0,0-3.4-2.79A10.421,10.421,0,0,0,9120.683,4860.118Z" transform="translate(-9080.664 -4840.43)" fill="#ff6730"/>
        <path id="Path_175" data-name="Path 175" d="M9075.191,4947.929c2.9-4.675,10.438-10.639,5.414-8.4-.035.016-3.487-7.067-3.523-7.051-3.6,1.628-15.672,11.483-18.734,13.979q-5.24,4.27-10.48,8.539a118.27,118.27,0,0,0-7.629-21.121,13,13,0,0,0-5.992,1.919c.859,8.581,1.548,18,3.793,26.33.657,2.437,1.584,5.123,3.842,6.251,2.1,1.048,4.611.376,6.828-.382C9055.58,4965.644,9072.754,4951.859,9075.191,4947.929Z" transform="translate(-9034.246 -4898.343)" fill="#a86396"/>
        <path id="Path_176" data-name="Path 176" d="M9075.191,4947.929c2.9-4.675,10.438-10.639,5.414-8.4-.035.016-3.487-7.067-3.523-7.051-3.6,1.628-15.672,11.483-18.734,13.979q-5.24,4.27-10.48,8.539a118.27,118.27,0,0,0-7.629-21.121,13,13,0,0,0-5.992,1.919c.859,8.581,1.548,18,3.793,26.33.657,2.437,1.584,5.123,3.842,6.251,2.1,1.048,4.611.376,6.828-.382C9055.58,4965.644,9072.754,4951.859,9075.191,4947.929Z" transform="translate(-9034.246 -4898.343)" opacity="0.3"/>
        <path id="Path_177" data-name="Path 177" d="M9168.7,5381.46a79.866,79.866,0,0,0-2.88,12.917c2.337-.1,5.082.017,7.419-.082a114.754,114.754,0,0,0,5.168-14.019C9174.813,5380.083,9171.722,5379.5,9168.7,5381.46Z" transform="translate(-9117.026 -5179.928)" fill="#f6b370"/>
        <path id="Path_178" data-name="Path 178" d="M9163.225,5406.045c-5.174-.087-6.212,5.323-9.49,6.4-.349.115-.336,1.451-.058,1.942.062,0,.558.489.617.489h16.343C9170.836,5412.59,9164.581,5406.069,9163.225,5406.045Z" transform="translate(-9109.255 -5196.286)" fill="#404382"/>
        <path id="Path_179" data-name="Path 179" d="M9086.246,5381.46a79.662,79.662,0,0,0-2.881,12.917c2.337-.1,5.083.017,7.42-.082a114.421,114.421,0,0,0,5.166-14.019C9092.357,5380.083,9089.266,5379.5,9086.246,5381.46Z" transform="translate(-9065.149 -5179.928)" fill="#f6b370"/>
        <path id="Path_180" data-name="Path 180" d="M9085.4,5079.438q-6.236,55.5-14.214,110.776a113.139,113.139,0,0,0,22.4-1.5c5.681-39.1,11.129-79,14.928-118.324C9100.306,5071.472,9092.414,5075.034,9085.4,5079.438Z" transform="translate(-9057.487 -4985.109)" fill="#404382"/>
        <path id="Path_181" data-name="Path 181" d="M9085.4,5079.438q-6.236,55.5-14.214,110.776a113.139,113.139,0,0,0,22.4-1.5c5.681-39.1,11.129-79,14.928-118.324C9100.306,5071.472,9092.414,5075.034,9085.4,5079.438Z" transform="translate(-9057.487 -4985.109)" opacity="0.2"/>
        <path id="Path_182" data-name="Path 182" d="M9161.8,5077.376a561.58,561.58,0,0,1,2.434,116.1,41.38,41.38,0,0,1-20.293.041c1.066-33.641-.393-69.482-5.728-102.715-.841-5.234,2.288-11.914,6.944-14.448S9157.106,5074.914,9161.8,5077.376Z" transform="translate(-9099.571 -4987.951)" fill="#404382"/>
        <path id="Path_183" data-name="Path 183" d="M9145.945,5097.978q-.971-11.745-2.427-23.443a22.586,22.586,0,0,0-11.375-2.421c.057-.574.119-1.149.175-1.722-8.212,1.081-16.1,4.644-23.116,9.048-.06.525-.125,1.05-.185,1.576A74.335,74.335,0,0,0,9145.945,5097.978Z" transform="translate(-9081.288 -4985.109)" opacity="0.3"/>
        <path id="Path_184" data-name="Path 184" d="M9121.228,4934.188c-6.636.993-11.907,6.463-14.55,12.631s-3.113,13.015-3.552,19.71q-.88,13.449-1.761,26.9a56.122,56.122,0,0,0,41.025,1.938c-2.1-7.863-.429-17.338.3-25.444s1.042-16.622-2.377-24.007S9129.277,4932.983,9121.228,4934.188Z" transform="translate(-9076.474 -4899.313)" fill="#a86396"/>
        <path id="Path_185" data-name="Path 185" d="M9165.652,5045.241c.014.19.035.392.059.6a2.722,2.722,0,0,1-1.107-.05,5.424,5.424,0,0,1-1.362-.7,3.351,3.351,0,0,0-1.411-.573,1.3,1.3,0,0,0-1.3.626c-1.481.38-3.2.916-4.685,1.3a1.848,1.848,0,0,0-1.071.551,1.519,1.519,0,0,0-.227.979,5.171,5.171,0,0,0,3.157,4.324,8.012,8.012,0,0,0,5.522.146,15.875,15.875,0,0,0,3.849-1.86,6.064,6.064,0,0,0,.422.681c2.421-.212,4.91-.412,7.421-.634.159-3.176.514-6.372.845-9.451Q9170.617,5042.974,9165.652,5045.241Z" transform="translate(-9109.931 -4966.728)" opacity="0.3"/>
        <path id="Path_186" data-name="Path 186" d="M9192.654,4972.977c-3.028-2.012-6.951-2.615-10.617-2.931a43.584,43.584,0,0,0,11.724,18.44A48.4,48.4,0,0,0,9192.654,4972.977Z" transform="translate(-9127.229 -4921.978)" opacity="0.3"/>
        <path id="Path_187" data-name="Path 187" d="M9146.612,4916.084q-.2,4.9-.4,9.809a12.68,12.68,0,0,0,8.647-.439c-.081-3.084-.722-6-.8-9.089A21.465,21.465,0,0,0,9146.612,4916.084Z" transform="translate(-9104.688 -4887.912)" fill="#f6b370"/>
        <path id="Path_188" data-name="Path 188" d="M9154.421,4919.462c-.112-1.023-.211-2.05-.238-3.1a21.459,21.459,0,0,0-7.443-.28q-.163,3.994-.327,7.988A50.227,50.227,0,0,0,9154.421,4919.462Z" transform="translate(-9104.815 -4887.912)" opacity="0.3"/>
        <path id="Path_189" data-name="Path 189" d="M9164.236,5045.313a3.52,3.52,0,0,1-2.228.927,5.448,5.448,0,0,1-1.494-.337,3.347,3.347,0,0,0-1.51-.2,1.308,1.308,0,0,0-1.1.932c-1.339.739-2.871,1.688-4.212,2.426a1.848,1.848,0,0,0-.9.8,1.516,1.516,0,0,0,.024,1,5.172,5.172,0,0,0,4.138,3.4,8.009,8.009,0,0,0,5.384-1.239,18.418,18.418,0,0,0,4.17-3.769A5.273,5.273,0,0,0,9164.236,5045.313Z" transform="translate(-9108.78 -4969.332)" fill="#f6b370"/>
        <path id="Path_190" data-name="Path 190" d="M9181.911,4944.624c-5.229-1.7-9.646,4.36-6.277,8.709.024.031.048.063.073.093a45.794,45.794,0,0,0,8.778,7.908l10.785,8.15a118.221,118.221,0,0,0-18.7,12.431,13.023,13.023,0,0,0,3.288,5.365c8.131-2.875,17.12-5.782,24.675-9.943,2.21-1.218,4.6-2.756,5.158-5.218.52-2.285-.729-4.567-1.994-6.542C9203.779,4959.463,9186.309,4946.058,9181.911,4944.624Z" transform="translate(-9122.46 -4905.798)" fill="#a86396"/>
        <path id="Path_191" data-name="Path 191" d="M9061.472,5405.494a49.318,49.318,0,0,1-16.377,6.4c-.6.115-.579,1.451-.1,1.942.105,0,.96.489,1.066.489h21.718a9.927,9.927,0,0,0-1.238-6.688C9065.357,5405.9,9063.085,5404.511,9061.472,5405.494Z" transform="translate(-9040.785 -5195.734)" fill="#404382"/>
        <path id="Path_192" data-name="Path 192" d="M9136.755,4872.62a30.077,30.077,0,0,0,1.281,15.7,16.257,16.257,0,0,0,11.358-3.131,11.673,11.673,0,0,0,4.377-10.25,9.539,9.539,0,0,0-7.276-8.105C9142.687,4866.1,9137.471,4868.806,9136.755,4872.62Z" transform="translate(-9098.421 -4856.967)" fill="#f6b370"/>
        <path id="Path_193" data-name="Path 193" d="M9131.063,4871.958a10.871,10.871,0,0,0,10.479.411,5.42,5.42,0,0,0,2.767,2.586c0,1.194,0,2.722,0,3.916.326-.052.819.084,1.146.032a5.042,5.042,0,0,1,.01-2.475,1.533,1.533,0,0,1,1.828-1.049,1.476,1.476,0,0,1,.824,1.449,3.611,3.611,0,0,1-.6,1.655,14.4,14.4,0,0,1-2.8,3.4c.271.6.3,1.275.571,1.873,3.176-1.759,5.613-4.188,6.332-7.746a11.051,11.051,0,0,0-3-10,9.755,9.755,0,0,0-10.091-2.107C9135.246,4865.2,9132.946,4868.972,9131.063,4871.958Z" transform="translate(-9095.158 -4854.813)" fill="#ff6730"/>
        <path id="Path_194" data-name="Path 194" d="M9139.166,4897.03c0,.6-.184,1.078-.412,1.078s-.412-.482-.412-1.078.186-1.078.412-1.078S9139.166,4896.435,9139.166,4897.03Z" transform="translate(-9099.737 -4875.362)" fill="#4d2b45"/>
        <path id="Path_195" data-name="Path 195" d="M9151.656,4897.03c0,.6-.184,1.078-.412,1.078s-.412-.482-.412-1.078.184-1.078.412-1.078S9151.656,4896.435,9151.656,4897.03Z" transform="translate(-9107.596 -4875.362)" fill="#4d2b45"/>
        <path id="Path_196" data-name="Path 196" d="M9129.883,4907.117a1.924,1.924,0,0,0-.643.24.568.568,0,0,0-.259.591c.083.279.419.385.71.41a7.031,7.031,0,0,0,4.08-1.413,4.283,4.283,0,0,0,1.086-.826,1.447,1.447,0,0,0,.362-1.267c-.427-1.617-1.733.3-2.272.73A8.24,8.24,0,0,1,9129.883,4907.117Z" transform="translate(-9093.838 -4880.561)" fill="#f6b370"/>
      </g>
      <g id="Group_79" data-name="Group 79" transform="translate(0 1.648)">
        <path id="Path_197" data-name="Path 197" d="M8905.4,5381.46a79.762,79.762,0,0,1,2.88,12.917c-2.337-.1-5.082.017-7.419-.082a114.754,114.754,0,0,1-5.168-14.019C8899.285,5380.083,8902.376,5379.5,8905.4,5381.46Z" transform="translate(-8861.24 -5181.575)" fill="#f6b370"/>
        <path id="Path_198" data-name="Path 198" d="M8912.063,5405.494a49.318,49.318,0,0,0,16.377,6.4c.6.115.58,1.451.1,1.942-.106,0-.962.489-1.066.489h-21.719a9.927,9.927,0,0,1,1.239-6.688C8908.179,5405.9,8910.45,5404.511,8912.063,5405.494Z" transform="translate(-8867.498 -5197.382)" fill="#404382"/>
        <path id="Path_199" data-name="Path 199" d="M8905.07,5078.637q-4.954,56.211-4.811,112.716c-5.957,1.1-12.628.693-18.68.409-3.361-38.831-1.194-79.418,8.759-117.1C8894.97,5076.048,8900.438,5077.249,8905.07,5078.637Z" transform="translate(-8851.437 -4989.443)" fill="#6f538c"/>
        <path id="Path_200" data-name="Path 200" d="M8905.07,5078.637q-4.954,56.211-4.811,112.716c-5.957,1.1-12.628.693-18.68.409-3.361-38.831-1.194-79.418,8.759-117.1C8894.97,5076.048,8900.438,5077.249,8905.07,5078.637Z" transform="translate(-8851.437 -4989.443)" opacity="0.3"/>
        <path id="Path_201" data-name="Path 201" d="M8840.2,4926.942c-5.927,5.514-13.492,10-21.581,9.678s-16.206-6.97-15.8-15.056c.418-8.361,9.148-15.255,7.638-23.489-.7-3.808-3.569-7.118-3.506-10.989.065-3.982,3.2-7.186,6.3-9.69s6.566-5.021,7.806-8.807c.986-3.016.36-6.311.8-9.453s2.77-6.566,5.923-6.218c-.552-3.166,3.358-7.348,6.523-7.909s6.369.685,9.182,2.239,5.479,3.46,8.55,4.4c1.94.6,4.086.835,5.652,2.125,2.9,2.388,2.316,7.036.647,10.4s-4.192,6.5-4.47,10.243c-.4,5.384,4,10.286,3.5,15.662-.477,5.144-5.213,8.861-6.8,13.776-1.379,4.264-.244,8.906-.643,13.369S8844.643,4927.515,8840.2,4926.942Z" transform="translate(-8802.798 -4844.874)" fill="#404382"/>
        <path id="Path_202" data-name="Path 202" d="M9006.832,4928.183a8.487,8.487,0,0,0,1.113-6.573c-.811-3.292-1.365-6.85-.129-10.006,1.285.932,1.828,2.555,2.3,4.071a30.379,30.379,0,0,1,1.58,7.068,10.229,10.229,0,0,1-1.814,6.869C9008.309,4929.882,9007.715,4929.507,9006.832,4928.183Z" transform="translate(-8931.166 -4886.856)" fill="#f6b370"/>
        <path id="Path_203" data-name="Path 203" d="M8896.707,4961.73c-2.611-4.841-9.776-11.25-4.9-8.711.035.018,6.645-5.039,6.681-5.021,3.494,1.843,12.212,10.6,15.118,13.28l9.945,9.156a118.134,118.134,0,0,1,8.891-20.622,13,13,0,0,1,5.865,2.277c-1.377,8.513-2.633,17.877-5.375,26.052-.8,2.393-1.892,5.018-4.214,6.008-2.155.919-4.624.1-6.793-.793C8915.214,4980.6,8898.9,4965.8,8896.707,4961.73Z" transform="translate(-8857.755 -4909.755)" fill="#ff9c83"/>
        <path id="Path_204" data-name="Path 204" d="M8896.289,4962.49c-2.687-4.8-9.954-11.094-5.035-8.632.036.017,6.566-5.144,6.6-5.126,3.521,1.788,12.378,10.411,15.326,13.04l10.088,9a118.3,118.3,0,0,1,8.563-20.76,13,13,0,0,1,5.9,2.185c-1.241,8.534-2.349,17.917-4.963,26.134-.767,2.406-1.812,5.047-4.118,6.074-2.142.953-4.623.17-6.8-.686C8915.091,4981.062,8898.549,4966.525,8896.289,4962.49Z" transform="translate(-8857.4 -4910.215)" opacity="0.3"/>
        <path id="Path_205" data-name="Path 205" d="M8871.681,5380.438a79.711,79.711,0,0,1-2.481,13c-2.105-1.018-4.672-2-6.777-3.019a114.687,114.687,0,0,1,.818-14.918C8866.617,5376.749,8869.686,5377.441,8871.681,5380.438Z" transform="translate(-8840.307 -5178.717)" fill="#f6b370"/>
        <path id="Path_206" data-name="Path 206" d="M8863.08,5406.048c5.174-.019,6.213,5.322,9.49,6.4.35.115.336,1.451.057,1.942-.06,0-.556.489-.617.489h-16.342C8855.469,5412.592,8856.864,5406.071,8863.08,5406.048Z" transform="translate(-8836.05 -5197.936)" fill="#404382"/>
        <path id="Path_207" data-name="Path 207" d="M8846.033,5077.376a561.376,561.376,0,0,0-2.435,116.1,41.383,41.383,0,0,0,20.294.041c-1.066-33.641.392-69.482,5.727-102.715.841-5.234-2.287-11.914-6.943-14.448S8850.728,5074.914,8846.033,5077.376Z" transform="translate(-8827.263 -4989.599)" fill="#6f538c"/>
        <path id="Path_208" data-name="Path 208" d="M8846.033,5077.383a561.379,561.379,0,0,0-2.435,116.1c.971.262,1.958.469,2.955.65a1131.871,1131.871,0,0,1,13.131-116.279,22.97,22.97,0,0,0,.283-2.508C8855.5,5074.262,8849.892,5075.358,8846.033,5077.383Z" transform="translate(-8827.263 -4989.606)" opacity="0.1"/>
        <path id="Path_209" data-name="Path 209" d="M8863.319,4934.188c6.637.993,11.908,6.463,14.55,12.631s3.114,13.015,3.552,19.71q.882,13.449,1.761,26.9a56.119,56.119,0,0,1-41.024,1.938c2.1-7.863.428-17.338-.3-25.444s-1.042-16.622,2.378-24.007S8855.271,4932.983,8863.319,4934.188Z" transform="translate(-8827.074 -4900.961)" fill="#ff9c83"/>
        <path id="Path_210" data-name="Path 210" d="M8855.3,4971.871c1.041-3.966,2.595-7.924,2.306-12.014a8.217,8.217,0,0,0-5.391-6.744,1.3,1.3,0,0,1-.023,1.226,48.154,48.154,0,0,1-9.421,11.6c-.025.023-.054.032-.079.053a45.3,45.3,0,0,0-1.289,7.44c.016,2.842.213,5.7.467,8.5.236,2.636.573,5.418.847,8.242a77.229,77.229,0,0,0,7.754,19.3,56.757,56.757,0,0,0,10.161.871A51.618,51.618,0,0,1,8855.3,4971.871Z" transform="translate(-8827.084 -4912.972)" opacity="0.3"/>
        <path id="Path_211" data-name="Path 211" d="M8894.176,4916.084l.4,9.809a12.681,12.681,0,0,1-8.647-.439c.083-3.084.722-6,.8-9.089A21.459,21.459,0,0,1,8894.176,4916.084Z" transform="translate(-8855.1 -4889.559)" fill="#f6b370"/>
        <path id="Path_212" data-name="Path 212" d="M8887.449,4919.462c.113-1.023.212-2.05.239-3.1a21.458,21.458,0,0,1,7.443-.28q.164,3.994.327,7.988A50.365,50.365,0,0,1,8887.449,4919.462Z" transform="translate(-8856.056 -4889.559)" opacity="0.3"/>
        <path id="Path_213" data-name="Path 213" d="M8888.846,4872.62a30.067,30.067,0,0,1-1.28,15.7,16.259,16.259,0,0,1-11.359-3.131,11.678,11.678,0,0,1-4.377-10.25,9.541,9.541,0,0,1,7.277-8.105C8882.915,4866.1,8888.131,4868.806,8888.846,4872.62Z" transform="translate(-8846.181 -4858.615)" fill="#f6b370"/>
        <path id="Path_214" data-name="Path 214" d="M8914.895,4897.03c0,.6.184,1.078.411,1.078s.413-.482.413-1.078-.186-1.078-.413-1.078S8914.895,4896.435,8914.895,4897.03Z" transform="translate(-8873.324 -4877.01)" fill="#4d2b45"/>
        <path id="Path_215" data-name="Path 215" d="M8902.4,4897.03c0,.6.184,1.078.412,1.078s.412-.482.412-1.078-.186-1.078-.412-1.078S8902.4,4896.435,8902.4,4897.03Z" transform="translate(-8865.466 -4877.01)" fill="#4d2b45"/>
        <path id="Path_216" data-name="Path 216" d="M8912.227,4907.006a7.294,7.294,0,0,1-.426-.651,1.525,1.525,0,0,1-.261.037,1.846,1.846,0,0,1-1.065-.28,1.418,1.418,0,0,1-.326-.275,1.449,1.449,0,0,0,.1,1.3,4.307,4.307,0,0,0,.893,1.031,15.525,15.525,0,0,0,1.525,1.288c.126-.549.232-1.1.326-1.657A8.224,8.224,0,0,1,8912.227,4907.006Z" transform="translate(-8870.266 -4883.228)" opacity="0.3"/>
        <path id="Path_217" data-name="Path 217" d="M8914.905,4907.117a1.927,1.927,0,0,1,.642.24.568.568,0,0,1,.259.591c-.083.279-.419.385-.71.41a7.031,7.031,0,0,1-4.08-1.413,4.283,4.283,0,0,1-1.086-.826,1.447,1.447,0,0,1-.362-1.267c.427-1.617,1.732.3,2.272.73A8.237,8.237,0,0,0,8914.905,4907.117Z" transform="translate(-8869.95 -4882.208)" fill="#f6b370"/>
        <path id="Path_218" data-name="Path 218" d="M8886.352,4872.749a12.72,12.72,0,0,1-12.814-2.892c.725,2-.239,4.706-1.789,6.161-.823.773-1.922,1.337-2.375,2.372a4.347,4.347,0,0,0-.072,2.571,6.873,6.873,0,0,1,.218,2.587,1.973,1.973,0,0,1-1.712,1.7,8.775,8.775,0,0,1-6.155-5.945,13.092,13.092,0,0,1,1-8.658,15.381,15.381,0,0,1,7.322-7.621,11.166,11.166,0,0,1,16.377,9.723Z" transform="translate(-8839.605 -4855.554)" fill="#404382"/>
        <path id="Path_219" data-name="Path 219" d="M8862.526,5126.686a2.008,2.008,0,0,0,1.226,1.479,10.719,10.719,0,0,1,1.794.9,1.485,1.485,0,0,1,.574,1.755,5.377,5.377,0,0,1,2.331,3.548,4.349,4.349,0,0,1-1.177,3.612,3.641,3.641,0,0,1-3.4,1.061,5.516,5.516,0,0,1-2.119-1.265,14.944,14.944,0,0,1-3.235-3.651,8.113,8.113,0,0,1-1.228-4.666A14.979,14.979,0,0,1,8862.526,5126.686Z" transform="translate(-8837.07 -5022.175)" fill="#f6b370"/>
        <path id="Path_220" data-name="Path 220" d="M8845.875,4947.7c-9.725,8.147-14.287,21.277-14.332,33.963s3.95,25.051,8.916,36.724a14.208,14.208,0,0,0,7.767-3.823c-7.82-13.989-7.742-32.34-.474-46.623,1.86-3.654,4.22-7.193,4.806-11.25S8849.867,4948.632,8845.875,4947.7Z" transform="translate(-8820.883 -4909.563)" fill="#ff9c83"/>
        <path id="Path_221" data-name="Path 221" d="M8907.714,4911.8a8.973,8.973,0,0,1-4.437-1.029,3.391,3.391,0,0,0,.915,2,2.633,2.633,0,0,0,2.077.743C8907.024,4913.429,8907.449,4912.513,8907.714,4911.8Z" transform="translate(-8866.015 -4886.333)" fill="#fff"/>
      </g>
      <g id="Group_80" data-name="Group 80" transform="translate(56.071 6.704)" opacity="0.8">
        <path id="Path_222" data-name="Path 222" d="M9021.789,4862.557c0,2.237-.4,4.05-.886,4.05s-.886-1.813-.886-4.05.4-4.05.886-4.05S9021.789,4860.32,9021.789,4862.557Z" transform="translate(-8995.533 -4858.507)" fill="#fff"/>
        <path id="Path_223" data-name="Path 223" d="M8990.753,4870.689c1.119,1.937,1.683,3.706,1.258,3.951s-1.673-1.128-2.791-3.065-1.682-3.706-1.258-3.951S8989.635,4868.752,8990.753,4870.689Z" transform="translate(-8975.276 -4864.225)" fill="#fff"/>
        <path id="Path_224" data-name="Path 224" d="M8967.063,4893.732c1.938,1.119,3.31,2.368,3.065,2.792s-2.013-.14-3.951-1.258-3.309-2.368-3.064-2.792S8965.126,4892.613,8967.063,4893.732Z" transform="translate(-8959.713 -4879.788)" fill="#fff"/>
        <path id="Path_225" data-name="Path 225" d="M8958.045,4924.529c2.237,0,4.051.4,4.051.886s-1.813.886-4.051.886-4.049-.4-4.049-.886S8955.809,4924.529,8958.045,4924.529Z" transform="translate(-8953.996 -4900.044)" fill="#fff"/>
        <path id="Path_226" data-name="Path 226" d="M8966.177,4951.221c1.938-1.118,3.706-1.681,3.951-1.258s-1.128,1.674-3.065,2.792-3.705,1.682-3.95,1.258S8964.24,4952.339,8966.177,4951.221Z" transform="translate(-8959.713 -4915.958)" fill="#fff"/>
        <path id="Path_227" data-name="Path 227" d="M9073.023,4926.3c-2.235,0-4.05-.4-4.05-.886s1.814-.886,4.05-.886,4.051.4,4.051.886S9075.261,4926.3,9073.023,4926.3Z" transform="translate(-9026.333 -4900.044)" fill="#fff"/>
        <path id="Path_228" data-name="Path 228" d="M9066.638,4895.266c-1.937,1.118-3.706,1.682-3.95,1.258s1.127-1.673,3.064-2.792,3.705-1.682,3.95-1.258S9068.574,4894.147,9066.638,4895.266Z" transform="translate(-9022.361 -4879.788)" fill="#fff"/>
        <path id="Path_229" data-name="Path 229" d="M9048.243,4871.575c-1.118,1.937-2.368,3.309-2.792,3.065s.14-2.014,1.258-3.951,2.369-3.309,2.792-3.065S9049.361,4869.638,9048.243,4871.575Z" transform="translate(-9011.445 -4864.225)" fill="#fff"/>
      </g>
      <path id="Path_230" data-name="Path 230" d="M9140.432,4912.735a8.967,8.967,0,0,0,4.437-1.028,3.4,3.4,0,0,1-.916,2,2.632,2.632,0,0,1-2.077.744C9141.12,4914.364,9140.7,4913.448,9140.432,4912.735Z" transform="translate(-9015.22 -4885.274)" fill="#fff"/>
    </g>
  </g>
</svg>
