<svg xmlns="http://www.w3.org/2000/svg" width="393.596" height="263.166" viewBox="0 0 393.596 263.166">
  <g id="Group_65" data-name="Group 65" transform="translate(0 0)">
    <path id="Path_26" data-name="Path 26" d="M4362.29,4481.087s55.768-58.67,9.431-122.189c-41.113-56.358-89.047-52.505-124.214-29.635-14.979,9.741,34.616,1.2-2.14-56.146-50.125-78.205-223.874-30.773-192.195,89.547,15.331,58.226-46.658,60.343-15.072,118.546Z" transform="translate(-4028.998 -4234.836)" fill="#fcecdb" opacity="0.72"/>
    <path id="Path_27" data-name="Path 27" d="M4511.242,4530.764s45.051-47.4,7.619-98.708c-33.212-45.529-71.935-42.417-100.344-23.941-12.1,7.87,27.964.97-1.729-45.356-40.492-63.177-180.854-24.86-155.261,72.339,12.384,47.037-37.692,48.747-12.176,95.766Z" transform="translate(-4140.132 -4285.445)" fill="#fcecdb" opacity="0.72"/>
    <path id="Path_28" data-name="Path 28" d="M4044.07,4751.106h17.669c.947-.8-.655-2.627-2.329-2.75a10.324,10.324,0,0,0-2.7.319c-.243-3.229-1.632-17.747-6.865-17.164-5.884.653,0,6.394,1.664,9.792a80.741,80.741,0,0,1,3.126,7.831c-.478.1-.972.2-1.477.3-.78-2.395-3.682-10.449-7.372-9.979-4.333.55-2.591,3.779.48,5.7,2.253,1.41,5.02,3.413,6.334,4.381a18.748,18.748,0,0,1-3.455.277C4046.119,4749.734,4044.642,4750.626,4044.07,4751.106Z" transform="translate(-4036.403 -4493.97)" fill="#82b378"/>
    <g id="Group_46" data-name="Group 46" transform="translate(35.45 80.805)">
      <path id="Path_29" data-name="Path 29" d="M4181.433,4727.02l1.367,5.749,1.813,7.624h5.666l.337-7.3.261-5.633Z" transform="translate(-4143.981 -4572.44)" fill="#ffb27d"/>
      <path id="Path_30" data-name="Path 30" d="M4122.854,4462.689s-4.483-4.8-7.4-1.035-6.146,6.3-10.62,9.194,3.953,25.571,9.557,25.1S4142.86,4477.608,4122.854,4462.689Z" transform="translate(-4103.358 -4433.232)" fill="#bc3f3f"/>
      <path id="Path_31" data-name="Path 31" d="M4163.795,4458c-1.119-.836-11.423-4.374-21.47-.895s7.781,13.171,7.781,13.171l5.779.249Z" transform="translate(-4121.975 -4430.83)" fill="#4a75cb"/>
      <path id="Path_32" data-name="Path 32" d="M4194.735,4763.354a15.086,15.086,0,0,0-.4-3.7c-.395-.922-1.844-4.678-1.844-4.678h-5.667a34.814,34.814,0,0,0-1.12,4.546c-.066,1.12,0,3.828,0,3.828Z" transform="translate(-4146.197 -4587.028)" fill="#233862"/>
      <path id="Path_33" data-name="Path 33" d="M4129.386,4763.354a15.122,15.122,0,0,1,.395-3.7c.4-.922,1.846-4.678,1.846-4.678h5.666a34.653,34.653,0,0,1,1.12,4.546c.066,1.12,0,3.828,0,3.828Z" transform="translate(-4116.826 -4587.028)" fill="#233862"/>
      <path id="Path_34" data-name="Path 34" d="M4159.063,4443.4s.2,6.177.99,8.944l6.257,13.488-23.555-5.6,5.618-7.762s1.7-8.283.807-11.346S4159.063,4443.4,4159.063,4443.4Z" transform="translate(-4123.801 -4422.782)" fill="#ffb27d"/>
      <path id="Path_35" data-name="Path 35" d="M4166.366,4448.7s-1.862,4.484-5.372,4.385-4.307-4.066-4.307-4.066Z" transform="translate(-4131.071 -4427.227)" fill="#ed985f"/>
      <path id="Path_36" data-name="Path 36" d="M4163.524,4421.643a56.241,56.241,0,0,1,1.924-7.369c.791-1.714,1.449-9.356-7.314-9.752,0,0-3.36.4-5.205-.725,0,0,0,1.121.461,1.515a5.825,5.825,0,0,0-5.4,1.912c-2.373,2.635,1.581,11.86,1.383,14.034Z" transform="translate(-4126.135 -4403.797)" fill="#2c3a64"/>
      <path id="Path_37" data-name="Path 37" d="M4158.656,4435.761c2.542-.045,7.222-3.43,7.222-7.623V4421.6a2.61,2.61,0,0,0-2.372-2.783h-9.7a2.61,2.61,0,0,0-2.372,2.783v6.171C4151.435,4432.164,4155.741,4435.812,4158.656,4435.761Z" transform="translate(-4128.33 -4411.632)" fill="#ffb27d"/>
      <path id="Path_38" data-name="Path 38" d="M4166.094,4423.474s-.013-3.931-3.126-4.535-10.082,1.916-11.07-.951,13.468-2.816,14.2-.989S4166.094,4423.474,4166.094,4423.474Z" transform="translate(-4128.546 -4410.016)" fill="#2c3a64"/>
      <path id="Path_39" data-name="Path 39" d="M4158,4572.93c-1.559-4.854-1.528,20.093,4.732,48.153.956,4.282,3.095,14.608,4.631,24.6h12.826c.176-8.071,1.042-19.336,1.586-27.775,1.708-26.451-2.64-46.3-2.64-46.3Z" transform="translate(-4131.309 -4491.354)" fill="#2b478b"/>
      <path id="Path_40" data-name="Path 40" d="M4124.482,4617.853c.142,8.087,1.784,18.832,1.933,26.706h13.012c.875-5.716,2.263-11.6,3.261-16.352a45.067,45.067,0,0,0,1.215-7.928c-.015-3.435,2.159-13.339,3.452-22.074l.006-.036c.05-.335.1-.671.145-1a144.93,144.93,0,0,0,1.122-24.294l-21.955-1.372S4124.105,4596.284,4124.482,4617.853Z" transform="translate(-4114.248 -4491.297)" fill="#2b478b"/>
      <path id="Path_41" data-name="Path 41" d="M4165.109,4592.883s-4.939,5.985-18.36,5.121-19.823-3.2-19.823-3.2Z" transform="translate(-4115.543 -4502.453)" fill="#233862"/>
      <path id="Path_42" data-name="Path 42" d="M4125.673,4528.285c4.384.6,34.207,2.146,38.183-1.922s-6.49-59.562-6.49-59.562-1.186-.343-3.186-.72c-1.019-.192-2.25-.391-3.642-.559-.017.433-.362,6.975-5.793,9.678,0,0-6.524-2.614-5.884-9.572.007-.082.017-.161.028-.239-.871.093-1.752.215-2.638.368a37.174,37.174,0,0,0-5.4,1.336S4121.289,4527.69,4125.673,4528.285Z" transform="translate(-4114.289 -4435.933)" fill="#739af0"/>
      <path id="Path_43" data-name="Path 43" d="M4193.52,4501.206c.176.231-1.012,1.938-2.69,4.135-3.451,4.51-8.971,11.073-8.971,11.073a22.733,22.733,0,0,0,.385,3.661,83.061,83.061,0,0,0,16.107-9.625c4.778-3.786,6.147-6.269,6.147-6.269-7.66-32.406-17.488-35.78-17.488-35.78l-3.208,19.527S4192.982,4500.5,4193.52,4501.206Z" transform="translate(-4144.204 -4437.504)" fill="#739af0"/>
      <path id="Path_44" data-name="Path 44" d="M4149.045,4465.758l1.976,6.009,2.634,3.868,3.781,2.05,3.558-2.05,5.981-9.553c-1.019-.192-2.25-.391-3.642-.559-.017.433-.362,6.975-5.793,9.678,0,0-6.523-2.614-5.884-9.572.007-.082.017-.161.028-.239C4150.812,4465.483,4149.931,4465.6,4149.045,4465.758Z" transform="translate(-4127.083 -4435.933)" fill="#ee9849"/>
      <path id="Path_45" data-name="Path 45" d="M4181.858,4556.714c0,.063,0,.125.007.187.017.41.041.794.071,1.143a6.274,6.274,0,0,0,.63.741,6.666,6.666,0,0,0,1.109.9c.192-.092.384-.187.572-.279a79.437,79.437,0,0,0,14.1-8.654,16.936,16.936,0,0,1-7.521-5.11C4187.379,4550.148,4181.858,4556.714,4181.858,4556.714Z" transform="translate(-4144.204 -4477.804)" fill="#ffb27d"/>
      <path id="Path_46" data-name="Path 46" d="M4103.123,4502.483s1.322,2.509,6.026,6.385a83.093,83.093,0,0,0,15.92,9.931,22.6,22.6,0,0,0,.455-3.653s-5.393-6.668-8.757-11.243c-1.635-2.228-2.791-3.958-2.61-4.185.427-.537,6.182-8.106,8.749-11.482l1.22-1.607-3.25-19.2S4111.4,4470.23,4103.123,4502.483Z" transform="translate(-4103.123 -4436.999)" fill="#739af0"/>
      <path id="Path_47" data-name="Path 47" d="M4115.726,4548.659a79.9,79.9,0,0,0,14,8.958c.16.081.322.166.486.25a9.016,9.016,0,0,0,1.633-3.244c-.108-.134-.248-.311-.419-.522-1.549-1.933-5.441-6.816-8.083-10.408A16.928,16.928,0,0,1,4115.726,4548.659Z" transform="translate(-4109.699 -4476.788)" fill="#ffb27d"/>
      <path id="Path_48" data-name="Path 48" d="M4154.56,4462.24a52.2,52.2,0,0,1,11.65.133.193.193,0,0,0,0-.023S4155.429,4455.681,4154.56,4462.24Z" transform="translate(-4129.961 -4432.784)" fill="#ffb27d"/>
      <g id="Group_41" data-name="Group 41" transform="translate(35.011 37.924)">
        <g id="Group_40" data-name="Group 40" transform="translate(0.228)">
          <path id="Path_49" data-name="Path 49" d="M4176.982,4493.489h.221l.163-10.394h-.559Z" transform="translate(-4176.807 -4483.095)" fill="#bbd4ff"/>
        </g>
        <path id="Path_50" data-name="Path 50" d="M4176.977,4504.141c.2.3.654,1.309.354,1.416a1.279,1.279,0,0,1-.97-.029C4176.219,4505.386,4176.6,4503.567,4176.977,4504.141Z" transform="translate(-4176.33 -4494.017)" fill="#ee9849"/>
      </g>
      <g id="Group_43" data-name="Group 43" transform="translate(24.804 37.924)">
        <g id="Group_42" data-name="Group 42" transform="translate(0.228)">
          <path id="Path_51" data-name="Path 51" d="M4155.639,4493.489h.221l.163-10.394h-.559Z" transform="translate(-4155.464 -4483.095)" fill="#bbd4ff"/>
        </g>
        <path id="Path_52" data-name="Path 52" d="M4155.634,4504.141c.2.3.655,1.309.354,1.416a1.279,1.279,0,0,1-.97-.029C4154.876,4505.386,4155.253,4503.567,4155.634,4504.141Z" transform="translate(-4154.987 -4494.017)" fill="#ee9849"/>
      </g>
      <path id="Path_53" data-name="Path 53" d="M4174.028,4472.943l9.166-8.833s2.064-1.464-1.2-3.655S4174.028,4472.943,4174.028,4472.943Z" transform="translate(-4140.118 -4433.243)" fill="#4a75cb"/>
      <path id="Path_54" data-name="Path 54" d="M4147.982,4472.943l-9.167-8.833s-2.063-1.464,1.2-3.655S4147.982,4472.943,4147.982,4472.943Z" transform="translate(-4121.411 -4433.243)" fill="#4a75cb"/>
      <g id="Group_44" data-name="Group 44" transform="translate(14.779 74.739)">
        <path id="Path_55" data-name="Path 55" d="M4134.025,4568.014v6.271h29.753v-6.255l-.274.01a8.983,8.983,0,0,1-4.214-1.1,6.174,6.174,0,0,1-1.305-1,5.826,5.826,0,0,1-1.078-1.5,8.3,8.3,0,0,1-.767-4.082l.009-.276h-14.806l-.007.26a11.9,11.9,0,0,1-.363,2.314,8.755,8.755,0,0,1-1.7,3.516,5.471,5.471,0,0,1-.535.552,5.662,5.662,0,0,1-4.425,1.324Z" transform="translate(-4134.025 -4560.074)" fill="#678fe5"/>
      </g>
      <path id="Path_56" data-name="Path 56" d="M4122.79,4519.608s8.253-10.829,1.72-13.982c-2.594-1.251-6.244,13.609-4.287,15.007s5.178,3.159,5.178,3.159Z" transform="translate(-4111.755 -4456.888)" fill="#678fe5"/>
      <path id="Path_57" data-name="Path 57" d="M4202.743,4517.794s-2.868-13.6-.351-12.2,6.244,13.609,4.287,15.007-5.178,3.16-5.178,3.16Z" transform="translate(-4154.377 -4456.859)" fill="#678fe5"/>
      <g id="Group_45" data-name="Group 45" transform="translate(12.192 31.189)">
        <path id="Path_58" data-name="Path 58" d="M4128.615,4500.512c3.769-4.678,5.176-12.275,4.984-20.115a91.754,91.754,0,0,0-1-11.385l-3.092,2.408a21.366,21.366,0,0,1,1.911,8.993c.125,5.239.373,9.227-2.588,18.345Z" transform="translate(-4128.615 -4469.012)" fill="#bc3f3f"/>
      </g>
      <path id="Path_59" data-name="Path 59" d="M4182.1,4723.9l6.641,0c.587.066,1.507-.794,1.507-2.024a24.541,24.541,0,0,1,.208-3.474c.855-2.3-.416-2.423-1.646-2.423h-12.115c-1.23,0,.654,3.8.654,5.032l-.437,1.613C4176.909,4723.854,4180.866,4723.9,4182.1,4723.9Z" transform="translate(-4141.29 -4566.68)" fill="#233862"/>
      <path id="Path_60" data-name="Path 60" d="M4184.29,4739.04l1.813,7.624h5.666l.337-7.3A11.833,11.833,0,0,1,4184.29,4739.04Z" transform="translate(-4145.472 -4578.712)" fill="#233862"/>
      <path id="Path_61" data-name="Path 61" d="M4142.242,4727.02l-1.367,5.662-1.813,7.509H4133.4l-.337-7.193-.261-5.548Z" transform="translate(-4118.605 -4572.44)" fill="#ffb27d"/>
      <path id="Path_62" data-name="Path 62" d="M4136.109,4723.9l-6.641,0c-.587.066-1.507-.794-1.507-2.024a24.407,24.407,0,0,0-.209-3.474c-.854-2.3.417-2.423,1.647-2.423h12.115c1.23,0-.654,3.8-.654,5.032l.436,1.613C4141.3,4723.854,4137.339,4723.9,4136.109,4723.9Z" transform="translate(-4115.828 -4566.68)" fill="#233862"/>
      <path id="Path_63" data-name="Path 63" d="M4141.16,4739.04l-1.813,7.624h-5.667l-.337-7.3A11.833,11.833,0,0,0,4141.16,4739.04Z" transform="translate(-4118.89 -4578.712)" fill="#233862"/>
    </g>
    <g id="Group_49" data-name="Group 49" transform="translate(237.956 85.319)">
      <path id="Path_64" data-name="Path 64" d="M4586.706,4420.18a7.222,7.222,0,0,1,2.756-1.483c-2.307-1.037-4.269-2.26-2.912-3.007a2.417,2.417,0,0,1,2.026-.009c-1.136-1.149-1.682-2.138-.575-2.4,1.683-.394,3.434,1.774,4.656,3.773-.793-1.714-1.2-3.413.277-3.438,1.7-.029,2.037,2.233,2.007,4.188.141,0,.282,0,.424.008.48-2.162,1.412-4.853,3-4.134.8.362.771,1.138.352,2.035.751-.576,1.494-.775,2.084-.166.9.931-.207,2.034-1.668,2.957a9.031,9.031,0,0,1,2.878,1.674c4.961,4.333-.449,14.146-.449,14.146l-14.166-.363C4582.957,4426.9,4585.1,4421.927,4586.706,4420.18Z" transform="translate(-4556.921 -4413.237)" fill="#2c3a64"/>
      <path id="Path_65" data-name="Path 65" d="M4609.107,4521.743l8.46,1.066c5.563.7,10.591-2.506,11.174-7.127l3.219-25.533c.582-4.621-1.853-8.263-7.446-8.492a56.68,56.68,0,0,1-14.8-2.846c-5.275-1.756-5.866,3.1-6.448,7.722l-3.219,25.533C4599.469,4516.688,4603.544,4521.042,4609.107,4521.743Z" transform="translate(-4564.875 -4447.258)" fill="#2b478b"/>
      <path id="Path_66" data-name="Path 66" d="M4632.751,4776.149a14.8,14.8,0,0,0-.388-3.625c-.388-.905-1.81-4.589-1.81-4.589H4625a34.142,34.142,0,0,0-1.1,4.459c-.065,1.1,0,3.755,0,3.755Z" transform="translate(-4577.331 -4598.302)" fill="#233862"/>
      <path id="Path_67" data-name="Path 67" d="M4568.653,4776.149a14.8,14.8,0,0,1,.388-3.625c.388-.905,1.81-4.589,1.81-4.589h5.558a34.044,34.044,0,0,1,1.1,4.459c.064,1.1,0,3.755,0,3.755Z" transform="translate(-4548.521 -4598.302)" fill="#233862"/>
      <path id="Path_68" data-name="Path 68" d="M4597.762,4462.328s.2,6.059.971,8.773l6.138,4.282-23.1,3.458,5.509-7.614s1.664-8.124.792-11.128S4597.762,4462.328,4597.762,4462.328Z" transform="translate(-4555.364 -4437.202)" fill="#b56f40"/>
      <path id="Path_69" data-name="Path 69" d="M4604.926,4467.525s-1.827,4.4-5.268,4.3-4.225-3.989-4.225-3.989Z" transform="translate(-4562.494 -4441.562)" fill="#99592e"/>
      <path id="Path_70" data-name="Path 70" d="M4597.363,4454.831c2.494-.044,7.083-3.364,7.083-7.476v-6.416a2.56,2.56,0,0,0-2.326-2.73h-9.513a2.56,2.56,0,0,0-2.327,2.73v6.053C4590.28,4451.3,4594.5,4454.881,4597.363,4454.831Z" transform="translate(-4559.806 -4426.266)" fill="#b56f40"/>
      <path id="Path_71" data-name="Path 71" d="M4618.368,4588.078s-.972,29.694.482,46.637-.011,40.521-.011,40.521a11,11,0,0,1-9.691,0s-5.528-32.732-5.493-40.521c.037-8.3-6.018-45.343-6.018-45.343Z" transform="translate(-4563.645 -4504.461)" fill="#ee9849"/>
      <path id="Path_72" data-name="Path 72" d="M4568.359,4675.18a10.989,10.989,0,0,0,9.689,0s5.528-32.731,5.493-40.521c-.015-3.5,1.055-12.137,2.3-20.94,1.7-12.042,3.72-24.4,3.72-24.4l-21.534-1.346s1.776,29.746.322,46.687S4568.359,4675.18,4568.359,4675.18Z" transform="translate(-4548.026 -4504.406)" fill="#ee9849"/>
      <path id="Path_73" data-name="Path 73" d="M4550.618,4485.683v.013a61.152,61.152,0,0,1,7.854-1.45,10.938,10.938,0,0,0,5.644,4.285c3.155-.437,5.813-4.321,5.813-4.411a31.921,31.921,0,0,1,7.171,1.433c1.743.731,4.031,14.347,4.388,21.911.044.949.06,1.8.039,2.524-.186,6.487-.448,12.792.388,19.776,1.1,9.176-.762,9.013-.762,9.013s-2.5.491-6,.954a84.792,84.792,0,0,1-10.782.824,107.739,107.739,0,0,1-17.556-1.778c-2.643.033.741-16.443,1.235-26.356.114-2.3.221-4.4.321-6.324-3.173,2.734-12.514,7.717-12.726,8.353a44.988,44.988,0,0,1,2.657,5.7,41.614,41.614,0,0,0,6.467,12.647,8.316,8.316,0,0,0-.4,3.048,81.476,81.476,0,0,1-13.3-12.721c-3.743-4.663-4.51-7.336-4.51-7.336C4540.96,4486.476,4550.618,4485.683,4550.618,4485.683Z" transform="translate(-4526.559 -4450.22)" fill="#74acbe"/>
      <path id="Path_74" data-name="Path 74" d="M4625.818,4565.2c3.494-.463,6-.954,6-.954s1.861.163.762-9.014c-.835-6.984-.574-13.289-.388-19.776.021-.721.006-1.574-.039-2.524-.536.857-6.5,10.489-8.1,17.647C4622.879,4555.8,4624.642,4561.949,4625.818,4565.2Z" transform="translate(-4577.224 -4475.688)" fill="#578e9b"/>
      <path id="Path_75" data-name="Path 75" d="M4597.027,4651.492c-.015-3.5,1.056-12.137,2.3-20.94a41.455,41.455,0,0,0-4.43-10.318C4590.92,4631.382,4597.027,4651.492,4597.027,4651.492Z" transform="translate(-4561.512 -4521.238)" fill="#e58638"/>
      <path id="Path_76" data-name="Path 76" d="M4564.061,4583.758s3.49-3.232,4.912-1.422,1.68,4.653.582,4.459-3.361-1.228-3.684-.711-1.771,1.505-2.211.721S4564.061,4583.758,4564.061,4583.758Z" transform="translate(-4545.851 -4501.178)" fill="#b56f40"/>
      <path id="Path_77" data-name="Path 77" d="M4549.69,4572.112a8.318,8.318,0,0,0-.4,3.047,81.457,81.457,0,0,1-13.3-12.721c2.007-.149,3.862-.6,7.233-2.975C4546.007,4567.956,4549.69,4572.112,4549.69,4572.112Z" transform="translate(-4531.48 -4489.531)" fill="#b56f40"/>
      <path id="Path_78" data-name="Path 78" d="M4547.245,4536.881c.518-.431,8.813-5,11.954-7.727,0,0-3.136-2.35-5.075,1.076S4547.245,4536.881,4547.245,4536.881Z" transform="translate(-4537.352 -4473.307)" fill="#578e9b"/>
      <path id="Path_79" data-name="Path 79" d="M4526.559,4550.343s.767,2.673,4.51,7.336C4535.4,4557.619,4526.559,4550.343,4526.559,4550.343Z" transform="translate(-4526.559 -4484.772)" fill="#578e9b"/>
      <path id="Path_80" data-name="Path 80" d="M4602.519,4440.473a6.727,6.727,0,0,0-7.4-4.459c-5.671.824-6.162,2.036-6.765,3.441s-1.766-5.138-1.766-5.138l6.689-1.987s8.094.921,8.676,2.279l.582,1.357Z" transform="translate(-4557.879 -4423.198)" fill="#2c3a64"/>
      <g id="Group_47" data-name="Group 47" transform="translate(43.063 34.051)">
        <path id="Path_81" data-name="Path 81" d="M4628.414,4523.946l-.1-4.5c-6.417-4.873-9.028-10.648-9.276-20.638a37.838,37.838,0,0,1,2.375-13.812s-1.136-.272-1.522-.339c-.417-.072-1.694-.218-1.694-.218a53.6,53.6,0,0,0-1.583,14.362C4616.865,4509.441,4621.463,4518.67,4628.414,4523.946Z" transform="translate(-4616.603 -4484.436)" fill="#2b478b"/>
      </g>
      <path id="Path_82" data-name="Path 82" d="M4604.1,4523.641c2.167.326,13.275,2.9,21.19,3.9,4.462.563,7.911.626,8.177-.5.736-3.118-1.769-22.982-5.75-30.977a18.652,18.652,0,0,0-11.36-9.723l-2.1,12.659,10.67,21.252-2.6.047-17.832.317Z" transform="translate(-4567.014 -4451.382)" fill="#74acbe"/>
      <g id="Group_48" data-name="Group 48" transform="translate(30.605 64.36)">
        <rect id="Rectangle_52" data-name="Rectangle 52" width="5.782" height="9.029" rx="2.891" transform="translate(5.782 9.029) rotate(-180)" fill="#233862"/>
        <rect id="Rectangle_53" data-name="Rectangle 53" width="5.782" height="9.029" rx="2.891" transform="translate(5.782 9.756) rotate(-180)" fill="#2b478b"/>
      </g>
      <path id="Path_83" data-name="Path 83" d="M4599.591,4556.271s-5.866-4.043-7.79-2.639-2.077,4.75,5.9,5.026Z" transform="translate(-4560.026 -4486.334)" fill="#b56f40"/>
      <path id="Path_84" data-name="Path 84" d="M4604.1,4560.688c2.167.326,13.275,2.9,21.19,3.9a17.835,17.835,0,0,0-2.96-7.239l-17.832.317Z" transform="translate(-4567.014 -4488.429)" fill="#b56f40"/>
      <path id="Path_85" data-name="Path 85" d="M4591.494,4451.191c.325,1.613,2.184,1.82,3.112,1.82a4.787,4.787,0,0,0,.522-.024c.869,0,1.48-.5,1.926-1.559a2.792,2.792,0,0,0,.217-.9,2.451,2.451,0,0,1,1.259.026,2.78,2.78,0,0,0,.216.877c.444,1.062,1.056,1.558,1.925,1.559a4.788,4.788,0,0,0,.521.024c.929,0,2.788-.207,3.113-1.82a1.462,1.462,0,0,0-.266-1.256,1.73,1.73,0,0,0-1.359-.578h-2.856a1.26,1.26,0,0,0-1.127.464,1.053,1.053,0,0,0-.163.5,2.653,2.653,0,0,0-1.27-.022,1.042,1.042,0,0,0-.161-.474,1.261,1.261,0,0,0-1.128-.464h-2.855a1.73,1.73,0,0,0-1.359.578A1.459,1.459,0,0,0,4591.494,4451.191Zm7.229-.582c.094.032.15.057.153.058a.108.108,0,0,0,.047.011.114.114,0,0,0,.1-.066.112.112,0,0,0-.056-.149,2.508,2.508,0,0,0-.251-.092.882.882,0,0,1,.135-.445,1.089,1.089,0,0,1,.971-.38h2.856a1.541,1.541,0,0,1,1.213.508,1.28,1.28,0,0,1,.228,1.1,2.064,2.064,0,0,1-1.849,1.572,5.646,5.646,0,0,1-1.584.075h-.011c-.787,0-1.346-.459-1.758-1.445A2.725,2.725,0,0,1,4598.722,4450.609Zm-6.817-.556a1.544,1.544,0,0,1,1.214-.508h2.855a1.09,1.09,0,0,1,.971.38.869.869,0,0,1,.133.425,1.95,1.95,0,0,0-.27.115.113.113,0,0,0-.046.152.112.112,0,0,0,.151.046,1.557,1.557,0,0,1,.163-.075,2.741,2.741,0,0,1-.2.766c-.413.985-.971,1.445-1.757,1.445h-.012a5.642,5.642,0,0,1-1.584-.075,2.062,2.062,0,0,1-1.849-1.572A1.283,1.283,0,0,1,4591.905,4450.054Z" transform="translate(-4560.419 -4432.083)" fill="#2c3a64"/>
      <path id="Path_86" data-name="Path 86" d="M4604.846,4464.127a19.491,19.491,0,0,0-4.6,0,2.72,2.72,0,0,0,2.05,1.273A2.529,2.529,0,0,0,4604.846,4464.127Z" transform="translate(-4565.007 -4439.709)" fill="#fff0e6"/>
    </g>
    <g id="Group_53" data-name="Group 53" transform="translate(156.389 87.364)">
      <g id="Group_52" data-name="Group 52">
        <path id="Path_87" data-name="Path 87" d="M4443.4,4443.561a18.422,18.422,0,0,1-.1-6.494c-.023.338-.295,4.634.835,7.325,5.73,5.667,15.47,22.695,14.666,25.388,0,0-5.892,21.113,7.073,10.225,0,0,15.992-13.854,5.99-27.159-3.563-4.741-8.729-14.46-7.838-17.812s2.278-18.279-8.416-16.456a6.593,6.593,0,0,0-2.185-1.066,2,2,0,0,1,.795.595,7.846,7.846,0,0,0-4.328-.043C4445.843,4419.4,4438.849,4437.288,4443.4,4443.561Z" transform="translate(-4400.831 -4417.511)" fill="#163560"/>
        <path id="Path_88" data-name="Path 88" d="M4402.955,4494.026a12.037,12.037,0,0,0,1.762,5.191,63.952,63.952,0,0,0,7.087,9.825l2.613-3.72s-1.588-3.942-2.643-7.191c-.634-1.954-1.073-3.657-.858-4.1.572-1.2,11.886-14.58,11.886-14.58l3.075-10.356s-7.526.4-10.732,5.09S4402.955,4490.139,4402.955,4494.026Z" transform="translate(-4380.501 -4444.423)" fill="#bc3f3f"/>
        <path id="Path_89" data-name="Path 89" d="M4406.639,4530.9a63.929,63.929,0,0,0,7.087,9.825l2.613-3.72s-1.588-3.942-2.643-7.192C4412.43,4530.564,4410.235,4531.279,4406.639,4530.9Z" transform="translate(-4382.424 -4476.106)" fill="#ffb27d"/>
        <path id="Path_90" data-name="Path 90" d="M4464.492,4716.4l-2.708,11.4-4.056-.023-.148-11.381Z" transform="translate(-4409.002 -4573.456)" fill="#ffb27d"/>
        <path id="Path_91" data-name="Path 91" d="M4389.016,4715.775l-7.7,10.918-3-3.855,4.637-8.564Z" transform="translate(-4367.642 -4572.348)" fill="#ffb27d"/>
        <path id="Path_92" data-name="Path 92" d="M4449.757,4465.2c-.034.014,3.253,1.721,5.724,1.044,2.325-.634,3.844-3.648,3.813-3.655-.985-.2-1.269-1.549-1.248-7.363l-.445.087-7.485,1.482s.17,2.356.176,4.575C4450.3,4463.235,4450.183,4465,4449.757,4465.2Z" transform="translate(-4404.92 -4437.19)" fill="#ffb27d"/>
        <path id="Path_93" data-name="Path 93" d="M4466,4424.184a5.982,5.982,0,0,0-8.124-1.843A32.44,32.44,0,0,1,4466,4424.184Z" transform="translate(-4409.155 -4419.576)" fill="#5fabb7"/>
        <path id="Path_94" data-name="Path 94" d="M4450.507,4456.894s.17,2.355.176,4.575c4.188-.118,6.4-3.939,7.309-6.057Z" transform="translate(-4405.312 -4437.286)" fill="#ef9e67"/>
        <path id="Path_95" data-name="Path 95" d="M4457.12,4438.341a21.993,21.993,0,0,0,3.939-5.77c.788-2,1.281-9.906-6.673-10.357a10.711,10.711,0,0,0-4.688.769c-1.907.794-4.823,2.754-3.467,10.013l.246,2.41Z" transform="translate(-4402.899 -4419.953)" fill="#163560"/>
        <path id="Path_96" data-name="Path 96" d="M4379.818,4632.761s1.99.344,3.623.467c.362.028.707.044,1.008.044a17.7,17.7,0,0,0,3.155-.518l.071-.016c.418-.1.737-.18.854-.21l.051-.013a84.747,84.747,0,0,0,15.484-28.748c.129-.413.267-.829.411-1.25,3.046-8.88,9.359-20.025,12.686-30.114q.794-2.407,1.431-4.55.207-.687.4-1.352a106.97,106.97,0,0,0,3.816-20.088l-20,5.089S4394.4,4587.909,4379.818,4632.761Z" transform="translate(-4368.43 -4484.767)" fill="#a53d38"/>
        <path id="Path_97" data-name="Path 97" d="M4446.039,4443.565s9.682,2.119,10.909-3.931,3.3-9.852-2.828-11.459-7.8.456-8.7,2.376S4443.552,4442.858,4446.039,4443.565Z" transform="translate(-4402.154 -4422.774)" fill="#ffb27d"/>
        <path id="Path_98" data-name="Path 98" d="M4455.476,4425.73s1.229,7.635,5.1,9.507,5.862,1.136,5.862,1.136a11.79,11.79,0,0,1-2.4-7.591S4458.164,4422.756,4455.476,4425.73Z" transform="translate(-4407.905 -4421.369)" fill="#163560"/>
        <path id="Path_99" data-name="Path 99" d="M4450.238,4426.436a8.76,8.76,0,0,0-3.1,2.628c-.8,1.443-1.653,4.572-2.555,4.277,0,0-1.031-5.229,1.771-7.5C4449.326,4423.423,4450.238,4426.436,4450.238,4426.436Z" transform="translate(-4402.125 -4421.366)" fill="#163560"/>
        <path id="Path_100" data-name="Path 100" d="M4460.933,4738.909a10.988,10.988,0,0,0,.516,4.676s.665,3.024-2.314,3.081-3.71-.225-3.372-2.08.979-5.062.979-5.062Z" transform="translate(-4408.014 -4585.202)" fill="#ffb27d"/>
        <path id="Path_101" data-name="Path 101" d="M4461.073,4748.6a15.9,15.9,0,0,1,.324,4.694,10.627,10.627,0,0,1-3.172.354,12.718,12.718,0,0,1-3.258-.354,19.858,19.858,0,0,1,.623-4.772S4457.7,4751.692,4461.073,4748.6Z" transform="translate(-4407.639 -4590.219)" fill="#c45446"/>
        <path id="Path_102" data-name="Path 102" d="M4363.3,4741.377s5.492-6.1,7.178-9.2l4.084,2.092-9.129,8.573-2.136-.281Z" transform="translate(-4359.808 -4581.691)" fill="#ffb27d"/>
        <path id="Path_103" data-name="Path 103" d="M4356,4747.233s5.9,0,6.914-.113,1.826-1.574,2.921-3.766a3.692,3.692,0,0,1,2.487-1.663l-.019,5.359h1.623l1.432-5.677c.972-1.787.077-3.408-.607-4.818-.8,0-2.937.542-6.994,5.113a5.317,5.317,0,0,1-4.268,1.992.432.432,0,0,1-.061.032C4356.061,4745.21,4356,4747.233,4356,4747.233Z" transform="translate(-4356.005 -4583.974)" fill="#c45446"/>
        <path id="Path_104" data-name="Path 104" d="M4387.393,4652.214c.362.028.708.044,1.008.044a17.791,17.791,0,0,0,3.155-.518l.071-.017.854-.21.051-.013a84.768,84.768,0,0,0,15.484-28.749q.193-.619.411-1.249c3.046-8.88,9.359-20.025,12.686-30.114q.795-2.409,1.432-4.551.206-.686.4-1.351l-3.537-2.686s-10.622,17.2-13.909,33.384C4402.769,4629.6,4391.035,4646.994,4387.393,4652.214Z" transform="translate(-4372.382 -4503.752)" fill="#912f2f"/>
        <path id="Path_105" data-name="Path 105" d="M4450.979,4612.714c-.061,7.871.338,25.965,1.363,33.458a5.336,5.336,0,0,0,3.383.87,5.812,5.812,0,0,0,3.572-.9c2.573-13.025,4.4-23.8,5.734-33.091,1.092-7.621,2.063-14.155,2.81-19.78.662-4.983,1.147-9.256,1.381-12.938q.046-.751.081-1.466c.029-.631.051-1.245.063-1.839s.015-1.182.01-1.747l-.086-.007-4.969-.484-15.7-1.532C4448.881,4587.048,4451.013,4608.14,4450.979,4612.714Z" transform="translate(-4404.326 -4498.772)" fill="#a53d38"/>
        <path id="Path_106" data-name="Path 106" d="M4463.476,4645.182a6.136,6.136,0,0,0,3.572-.9c2.573-13.026,4.4-23.8,5.734-33.091,1.093-7.621,2.063-14.155,2.81-19.78.662-4.984,1.147-9.256,1.381-12.938.027-1.815.047-3.553.068-5.06.022-1.528.047-2.822.089-3.722l-5.058,3.237-5.323,3.4s7.55,6.868,5.695,19.851S4466.058,4643.342,4463.476,4645.182Z" transform="translate(-4412.079 -4496.911)" fill="#912f2f"/>
        <path id="Path_107" data-name="Path 107" d="M4420.8,4522.431c6.023,1.565,34.13,4.656,34.373-2.384.06-1.717,0-3.791-.136-6.036-.419-6.954-1.56-15.547-2.107-20.276-.25-2.167.583-11.875-.057-17.165a11.984,11.984,0,0,0-.388-2.021c-1.214-3.992-6.669-5.075-9.47-5.17l-8.449-.289s-8.727,9.748-9.94,12.743-1.611,13.246-2.555,18.21S4417.868,4521.671,4420.8,4522.431Z" transform="translate(-4389.187 -4444.423)" fill="#bc3f3f"/>
        <path id="Path_108" data-name="Path 108" d="M4456.452,4506.8s4.7,14.427,17.637,15.371c-.419-6.954-1.56-15.547-2.107-20.275-.251-2.167.583-11.875-.057-17.165-.168.036-.321.13-.5.164C4457.179,4487.646,4455.156,4503.793,4456.452,4506.8Z" transform="translate(-4408.241 -4452.583)" fill="#a53d38"/>
        <g id="Group_50" data-name="Group 50" transform="translate(36.746 37.983)">
          <rect id="Rectangle_54" data-name="Rectangle 54" width="15.091" height="22.969" transform="translate(17.439 22.916) rotate(173.92)" fill="#2b478b"/>
          <path id="Path_109" data-name="Path 109" d="M4464.219,4497.009l.962-.077,2.262,22.822-.792.095Z" transform="translate(-4449.213 -4496.932)" fill="#163560"/>
        </g>
        <g id="Group_51" data-name="Group 51" transform="translate(41.51 24.956)">
          <path id="Path_110" data-name="Path 110" d="M4465.7,4518.235a159.446,159.446,0,0,1-20.708,4.683s-3.34,1.444-1.771,1.839c.4.1,20.666,4.52,23.67,1.653Z" transform="translate(-4442.801 -4495.021)" fill="#ffb27d"/>
          <path id="Path_111" data-name="Path 111" d="M4468.5,4469.694s5.566.03,7.944,2.742c4.339,4.95,5.2,26,3.829,28.647-.588,1.137-5.106,1.229-7.011-4.277C4472.276,4493.951,4467.96,4474.885,4468.5,4469.694Z" transform="translate(-4456.187 -4469.694)" fill="#bc3f3f"/>
        </g>
        <path id="Path_112" data-name="Path 112" d="M4441.5,4525.042s-1.245-.116-1.481-.514c-.473-.795-1.218-.785-1.841-.89s-1.321-.786-1.445-.649.459.888.784,1.168a2.72,2.72,0,0,1-1.109-.17c-.442-.21-1.788-1.951-2-1.219-.558,1.926.022,3.777,1.567,3.927,1.667.163,5.8.96,5.8.96Z" transform="translate(-4396.804 -4472.337)" fill="#ffb27d"/>
      </g>
    </g>
    <g id="Group_63" data-name="Group 63" transform="translate(97.322 84.392)">
      <g id="Group_55" data-name="Group 55" transform="translate(48.998 26.618)">
        <path id="Path_113" data-name="Path 113" d="M4341.042,4502.564c7.909-2.012,16.6-14.282,16.6-14.282l-2.227-1.932c-2.306,2.718-11.892,7.4-11.892,7.4.051-2.488-.014-4.757-.17-6.822-1.064-14.035-6.355-18.711-7.8-19.737a3.323,3.323,0,0,0-.367-.236l-.014.295c-.021.417-.059,1.258-.1,2.41C4334.784,4478.251,4334.433,4504.248,4341.042,4502.564Z" transform="translate(-4334.949 -4466.955)" fill="#d9935c"/>
        <path id="Path_114" data-name="Path 114" d="M4377.748,4498.625c.034-.332.256-5.153,1.214-6.071s2.85-2.168,3.392-2.067,2.39,3.171,1.519,5.287-3.9,4.784-3.9,4.784Z" transform="translate(-4357.28 -4479.229)" fill="#d9935c"/>
        <g id="Group_54" data-name="Group 54" transform="translate(18.19 9.385)">
          <rect id="Rectangle_55" data-name="Rectangle 55" width="10.567" height="5.84" rx="0.655" transform="matrix(0.042, -0.999, 0.999, 0.042, 0, 10.558)" fill="#f1a34f"/>
          <path id="Rectangle_56" data-name="Rectangle 56" d="M1.161,0H9.406a1.161,1.161,0,0,1,1.161,1.161V4.678A1.161,1.161,0,0,1,9.406,5.84H1.162A1.162,1.162,0,0,1,0,4.678V1.161A1.161,1.161,0,0,1,1.161,0Z" transform="matrix(0.042, -0.999, 0.999, 0.042, 1.111, 10.604)" fill="#d86713"/>
        </g>
        <path id="Path_115" data-name="Path 115" d="M4384.483,4490.357s-1.42-1.585-2.84-.374.094,3.8,1.326,4.505a9.988,9.988,0,0,1,1.626,1.076Z" transform="translate(-4359.013 -4478.733)" fill="#d9935c"/>
      </g>
      <path id="Path_116" data-name="Path 116" d="M4309.294,4634.471c.482,1.916,1.012,3.739,1.552,5.438.116.364.23.722.346,1.071.058.174.116.347.172.516q.171.5.337.988c.146.419.292.829.437,1.226q.159.442.315.864c1.6,4.3,2.948,7.027,2.948,7.027l3.195-.22a86.912,86.912,0,0,1-1.439-13.882c-.008-.292-.016-.586-.022-.884-.013-.634-.021-1.279-.021-1.939,0-.271,0-.544,0-.82a73.432,73.432,0,0,1,3.717-23.307,151.886,151.886,0,0,0,5.088-17.964c3.828-17.629,2.928-29.212,2.928-29.212l-17.978,2.1-.838.1c-.076,8.257-.288,19.467-.474,28.232-.031,1.521-.062,2.969-.091,4.315-.125,5.627-.218,9.475-.218,9.475C4305.795,4615.041,4307.05,4625.547,4309.294,4634.471Z" transform="translate(-4271.425 -4490.644)" fill="#cb7d45"/>
      <path id="Path_117" data-name="Path 117" d="M4311.551,4422.348s-4.253,3.621-.354,7.79c0,0-3.25.319-4.35-.582a3.04,3.04,0,0,0,.417.636s-3.633.131-5.133-1-.536-19.721,9.547-17.643c0,0,8.547-.645,7.75,9.244s2.431,9.889,2.431,9.889a4.584,4.584,0,0,1-1.331.443s-.633-.242-.758-.592a2.261,2.261,0,0,0,.288.725s-3.483.33-5.223-.984S4311.055,4424.388,4311.551,4422.348Z" transform="translate(-4268.535 -4411.343)" fill="#233862"/>
      <path id="Path_118" data-name="Path 118" d="M4293.661,4499.19c3.4-7.62,5.022-9.774,5.08-12.171.045-1.9-.89-3.941-2.706-8.957a18.685,18.685,0,0,1-.9-3.626c-1.437-9.669,4.155-20.123,7.631-20.834.966-.256,2.606-3.749,2.585-9.376l.435.085,7.318,1.45s-.167,2.3-.171,4.472c0,1.808.093,3.647.5,3.863.527.047,1.006.144,1.006.144s6.193,4.349,6.593,10.249c.535,7.879-5.021,17.221-.095,32.97C4325.966,4513.544,4291.784,4503.4,4293.661,4499.19Z" transform="translate(-4264.371 -4428.478)" fill="#d9935c"/>
      <path id="Path_119" data-name="Path 119" d="M4326.406,4445.853s-.167,2.3-.171,4.473c-4.1-.116-6.26-3.851-7.147-5.922Z" transform="translate(-4277.676 -4428.571)" fill="#cb7d45"/>
      <path id="Path_120" data-name="Path 120" d="M4314.537,4426.333a21.521,21.521,0,0,1-2.661-6.29c-.368-2.07.687-9.743,8.4-8.638a10.477,10.477,0,0,1,4.344,1.643c1.675,1.131,4.09,3.571,1.389,10.267l-.7,2.261Z" transform="translate(-4273.879 -4411.298)" fill="#233862"/>
      <path id="Path_121" data-name="Path 121" d="M4326.554,4433.894s-9.689.16-9.7-5.876-1.262-10.079,4.924-10.436,7.39,1.944,7.882,3.958S4329.074,4433.7,4326.554,4433.894Z" transform="translate(-4276.456 -4414.557)" fill="#d9935c"/>
      <path id="Path_122" data-name="Path 122" d="M4322.8,4415.975s-2.652,7.081-6.724,8.127-5.837-.043-5.837-.043a11.53,11.53,0,0,0,3.771-6.811S4320.8,4412.605,4322.8,4415.975Z" transform="translate(-4273.057 -4413.098)" fill="#233862"/>
      <path id="Path_123" data-name="Path 123" d="M4335.125,4417.255a8.556,8.556,0,0,1,2.464,3.118c.483,1.537.7,4.7,1.622,4.593,0,0,2-4.812-.248-7.535C4336.583,4414.544,4335.125,4417.255,4335.125,4417.255Z" transform="translate(-4286.043 -4413.804)" fill="#233862"/>
      <path id="Path_124" data-name="Path 124" d="M4267.394,4517.314l2.909.872s9.6-15.919,10.467-20.062c.285-1.349.982-4.048,1.8-7.071,1.685-6.261,3.859-13.924,3.859-13.924l.716-3.1,2.443-10.577a33.144,33.144,0,0,0-7.412,1.622,3.4,3.4,0,0,0-1.839,1.359c-2.01,4.418-4.016,15.57-5.426,23.525-.786,4.433-1.385,7.875-1.7,8.6C4272.337,4500.595,4269.672,4511.79,4267.394,4517.314Z" transform="translate(-4250.704 -4438.509)" fill="#d9935c"/>
      <path id="Path_125" data-name="Path 125" d="M4328.229,4416.912s-1.89,7.415-7.026,9.79c0,0,5.137-4.556,5.573-9.45S4328.229,4416.912,4328.229,4416.912Z" transform="translate(-4278.779 -4413.221)" fill="#233862"/>
      <path id="Path_126" data-name="Path 126" d="M4289.836,4628.794a44.247,44.247,0,0,0,5.585,18.166l1.554,1.414s1.416-8.078,2.438-17.324c.974-8.789,2.31-18.089,3.82-20.929,2.257-4.242,3.921-12.916,5.119-22.081,1.979-15.165,2.681-31.677,2.681-31.677l-18.227-.9c-1.834,3.081-2.632,8.137-2.822,13.884a139.953,139.953,0,0,0,.936,18.938c.922,8.519,2.206,15.62,2.5,17.215a.015.015,0,0,0,0,.008.945.945,0,0,1-.12.609C4289.678,4613.292,4289.154,4621.5,4289.836,4628.794Z" transform="translate(-4262.279 -4486.515)" fill="#d9935c"/>
      <path id="Path_127" data-name="Path 127" d="M4334.447,4484.492c.41,10.012,1.908,19.927,6.267,19.289,5.343-.779,6.734-5.767,7.019-9.475a21.293,21.293,0,0,0-.078-4.119s-2.63-.012-3.055-.4c-2.02-1.866-1.42-20.163-2.419-22.063s-7.488-3.119-7.488-3.119S4334.039,4474.595,4334.447,4484.492Z" transform="translate(-4285.62 -4439.109)" fill="#ee9849"/>
      <path id="Path_128" data-name="Path 128" d="M4334.593,4498.694c.41,10.013,1.908,19.927,6.267,19.289,5.343-.78,6.735-5.767,7.019-9.475-1.312-.065-3.622-.385-4.54-1.785-1.314-2-5.413-14.9-5.413-14.9S4336.314,4494.717,4334.593,4498.694Z" transform="translate(-4285.766 -4453.311)" fill="#e58638"/>
      <path id="Path_129" data-name="Path 129" d="M4309.294,4665.887c.482,1.916,1.012,3.739,1.552,5.438.116.363.23.722.346,1.071.058.174.116.347.172.516.114.336.226.666.337.988.146.42.292.83.437,1.226q.159.441.315.864c1.6,4.3,2.948,7.027,2.948,7.027l3.195-.22a86.91,86.91,0,0,1-1.439-13.881q-.012-.438-.022-.884c-.013-.634-.021-1.28-.021-1.94,0-.271,0-.544,0-.82a73.436,73.436,0,0,1,3.717-23.307,151.88,151.88,0,0,0,5.088-17.963c-1.9.392-3.572-.008-8.427-.416-.51-.042-2.95,2.978-5.359,6.975-.124,5.627-2.886,8.453-2.886,8.453C4305.795,4646.456,4307.05,4656.962,4309.294,4665.887Z" transform="translate(-4271.425 -4522.059)" fill="#233862"/>
      <path id="Path_130" data-name="Path 130" d="M4289.836,4664.339a44.243,44.243,0,0,0,5.585,18.166l1.554,1.415s1.416-8.078,2.438-17.324c.974-8.789,2.31-18.089,3.82-20.929,2.257-4.242,3.921-12.917,5.119-22.081-1.678.7-7.387,2.512-17.432.24.922,8.519,2.206,15.62,2.5,17.215a.015.015,0,0,0,0,.008.946.946,0,0,1-.12.61C4289.678,4648.837,4289.154,4657.05,4289.836,4664.339Z" transform="translate(-4262.279 -4522.06)" fill="#2b478b"/>
      <path id="Path_131" data-name="Path 131" d="M4282.815,4563.767a65.756,65.756,0,0,0,9.432,1.956c6.956.961,16.68,1.309,25.364-1.956,0,0,.716-12.921-1.341-19.658s-3.02-9.962-3.02-9.962a43.535,43.535,0,0,1-16.617.465,27.14,27.14,0,0,1-3.511-.908s-5.166,10.965-6.586,15.665S4282.815,4563.767,4282.815,4563.767Z" transform="translate(-4258.75 -4475.164)" fill="#2b478b"/>
      <path id="Path_132" data-name="Path 132" d="M4282.815,4563.767a65.756,65.756,0,0,0,9.432,1.956c10.3-5.842,5.278-30.423,5.278-30.423-.3-.248-.6-.477-.893-.687a27.14,27.14,0,0,1-3.511-.908s-5.166,10.965-6.586,15.665S4282.815,4563.767,4282.815,4563.767Z" transform="translate(-4258.75 -4475.164)" fill="#233862"/>
      <path id="Path_133" data-name="Path 133" d="M4265.182,4497.987c0,2.516,2.565,4.061,5.319,4.813,2.647.724,5.467.714,6.349.124,1.522-1.02,4-12.358,4.726-15.81.129-.625.2-.991.2-.991s1.978,4.719,2.04,5.159c.028.2.053.47.07.71.02.29.032.53.032.53s10.732,5.417,20.127.442c0,0,3.82-22.073,2.162-25.872-.824-1.888-5.121-5.783-6.841-7.463a2.041,2.041,0,0,1-.2-1.81.79.79,0,0,0-.968-.937,10.186,10.186,0,0,1-5.227-.463,12.576,12.576,0,0,1-3.2-1.561.488.488,0,0,0-.758.345c-.162,1.317-.56,3.72-1.286,3.72-1-.005-7.823.833-8.323,1.676-.174.293-1.947,4.308-4.187,9.625a.1.1,0,0,0,0,.014C4271.019,4480.211,4265.182,4494.77,4265.182,4497.987Z" transform="translate(-4249.55 -4433.981)" fill="#ee9849"/>
      <path id="Path_134" data-name="Path 134" d="M4299.887,4505.572s1.978,4.719,2.04,5.159c.028.2.053.469.07.71a9.75,9.75,0,0,0,3.29,1.729c3.346,1.014,4.8-5.4,4.6-8.6s-4.932-12.332-6.507-12.523S4299.887,4505.572,4299.887,4505.572Z" transform="translate(-4267.658 -4453.429)" fill="#e58638"/>
      <path id="Path_135" data-name="Path 135" d="M4299.461,4521.318c.129-.626.2-.992.2-.992A5.062,5.062,0,0,0,4299.461,4521.318Z" transform="translate(-4267.436 -4468.184)" fill="#e58638"/>
      <g id="Group_56" data-name="Group 56" transform="translate(34.015 56.295)">
        <path id="Path_136" data-name="Path 136" d="M4315.35,4534.131c6.107,0,8.625-2.1,8.811-2.245l.4-2.876c-.059.043-8.253,4.964-20.935.251l.269,2.18C4308.766,4533.252,4312.178,4534.131,4315.35,4534.131Z" transform="translate(-4303.62 -4529.01)" fill="#b64c41"/>
      </g>
      <path id="Path_137" data-name="Path 137" d="M4265.182,4514.859c0,2.516,2.565,4.062,5.319,4.813-3.8-4.519,4.509-31.866,4.721-32.563C4271.019,4497.083,4265.182,4511.641,4265.182,4514.859Z" transform="translate(-4249.55 -4450.853)" fill="#e58638"/>
      <path id="Path_138" data-name="Path 138" d="M4312.344,4458.922s5.109,3.236,8.975,2.47c0,0,.928-.586-.352-1.176-1.2-.552-4-2.185-3.383-3.8a12.576,12.576,0,0,1-3.2-1.561.488.488,0,0,0-.758.345C4313.468,4456.52,4313.069,4458.922,4312.344,4458.922Z" transform="translate(-4274.157 -4433.981)" fill="#e58638"/>
      <g id="Group_57" data-name="Group 57" transform="translate(40.478 156.243)">
        <path id="Path_139" data-name="Path 139" d="M4318.793,4745.393h2.04c.683-.108,1.188-.306,1.888-.4a1.894,1.894,0,0,1,1.652.4c.013.013.019.02.019.02h8.665c.218-.311.009-1.032-.2-1.562a1.233,1.233,0,0,0-.812-.742,9.345,9.345,0,0,1-4.389-2c-.934-.844-4.507-3.1-4.507-3.1l-.019,0c-.079,0-.453.117-2.078,1.489-.84.708-2.273-1-2.273-1a2.04,2.04,0,0,0-.469.636,2.165,2.165,0,0,0-.187,1.331,8.614,8.614,0,0,1-.62,3.213c-.2.595-.372,1.016-.372,1.016S4317.039,4745.173,4318.793,4745.393Z" transform="translate(-4317.135 -4737.998)" fill="#233862"/>
        <path id="Path_140" data-name="Path 140" d="M4319.6,4739.123a6.478,6.478,0,0,0,2.2,1.109c.92.12,2.641-2.229,2.641-2.229l-.019,0c-.079,0-.452.117-2.078,1.489-.84.708-2.272-1-2.272-1A2.036,2.036,0,0,0,4319.6,4739.123Z" transform="translate(-4318.422 -4737.998)" fill="#466aa5"/>
        <path id="Path_141" data-name="Path 141" d="M4318.793,4751.577h2.04c.683-.108,1.188-.306,1.888-.4a1.89,1.89,0,0,1,1.652.4l.019.02h8.665c.218-.311.009-1.032-.2-1.562-.263-.234-.337,1.017-.483,1.215a38.7,38.7,0,0,1-7.468-.218,4.183,4.183,0,0,0-3.271-.4c-1.455.348-3.6-.543-4.13-.78-.2.6-.372,1.016-.372,1.016S4317.039,4751.357,4318.793,4751.577Z" transform="translate(-4317.135 -4744.183)" fill="#466aa5"/>
      </g>
      <g id="Group_58" data-name="Group 58" transform="translate(29.593 156.243)">
        <path id="Path_142" data-name="Path 142" d="M4296.033,4745.393h2.041c.683-.108,1.187-.306,1.888-.4a1.892,1.892,0,0,1,1.651.4c.013.013.019.02.019.02h8.665c.218-.311.009-1.032-.2-1.562a1.235,1.235,0,0,0-.812-.742,9.343,9.343,0,0,1-4.389-2c-.934-.844-4.507-3.1-4.507-3.1l-.019,0c-.079,0-.453.117-2.078,1.489-.84.708-2.272-1-2.272-1a2.04,2.04,0,0,0-.469.636,2.155,2.155,0,0,0-.187,1.331,8.616,8.616,0,0,1-.621,3.213c-.2.595-.372,1.016-.372,1.016S4294.278,4745.173,4296.033,4745.393Z" transform="translate(-4294.375 -4737.998)" fill="#233862"/>
        <path id="Path_143" data-name="Path 143" d="M4296.842,4739.123a6.474,6.474,0,0,0,2.2,1.109c.92.12,2.641-2.229,2.641-2.229l-.019,0c-.079,0-.453.117-2.078,1.489-.84.708-2.272-1-2.272-1A2.036,2.036,0,0,0,4296.842,4739.123Z" transform="translate(-4295.662 -4737.998)" fill="#466aa5"/>
        <path id="Path_144" data-name="Path 144" d="M4296.033,4751.577h2.041c.683-.108,1.187-.306,1.888-.4a1.889,1.889,0,0,1,1.651.4l.019.02h8.665c.218-.311.009-1.032-.2-1.562-.264-.234-.337,1.017-.483,1.215a38.7,38.7,0,0,1-7.469-.218,4.183,4.183,0,0,0-3.271-.4c-1.455.348-3.6-.543-4.13-.78-.2.6-.372,1.016-.372,1.016S4294.278,4751.357,4296.033,4751.577Z" transform="translate(-4294.375 -4744.183)" fill="#466aa5"/>
      </g>
      <g id="Group_62" data-name="Group 62" transform="translate(0 85.238)">
        <path id="Path_145" data-name="Path 145" d="M4244.836,4598.854a2.958,2.958,0,0,1,1.882-2.2,11.481,11.481,0,0,1,7.3-.178c5.336,1.568,5.858,4.848,5.505,7.207s.693,6.119.54,8.793-.919,9.395-4.87,9.042-16.686-3.775-16.686-3.775-2.2-4.187,2.319-10.252A21.824,21.824,0,0,0,4244.836,4598.854Z" transform="translate(-4235.354 -4592.891)" fill="#d37129"/>
        <g id="Group_61" data-name="Group 61">
          <g id="Group_59" data-name="Group 59" transform="translate(11.928)">
            <path id="Path_146" data-name="Path 146" d="M4257.438,4592.4l1.057.1a2.369,2.369,0,0,1,.606-1.189,1.72,1.72,0,0,1,1.532-.376,1.6,1.6,0,0,1,1.269.826,2.557,2.557,0,0,1,.137,1.457l1.03.237a4.206,4.206,0,0,0-.229-2.492,2.531,2.531,0,0,0-1.952-1.385,2.659,2.659,0,0,0-2.38.688A4.083,4.083,0,0,0,4257.438,4592.4Z" transform="translate(-4257.438 -4589.529)" fill="#d37129"/>
          </g>
          <g id="Group_60" data-name="Group 60" transform="translate(0 2.491)">
            <path id="Path_147" data-name="Path 147" d="M4233.033,4616.5s12.736,3.431,16.691,3.777,4.719-6.361,4.864-9.045c.156-2.667-.886-6.429-.539-8.793a6.559,6.559,0,0,0,.08-1.442c-.1-2.1-1.281-4.495-5.577-5.756a11.468,11.468,0,0,0-7.31.182,2.959,2.959,0,0,0-1.883,2.189c-.047.207-.089.457-.146.7a22.048,22.048,0,0,1-3.863,7.942C4230.83,4612.32,4233.033,4616.5,4233.033,4616.5Z" transform="translate(-4232.496 -4594.737)" fill="#f1a34f"/>
            <path id="Path_148" data-name="Path 148" d="M4265.815,4628.522l-7.676-1.737s-1.786,5.5,1.842,6.5S4265.113,4632.157,4265.815,4628.522Z" transform="translate(-4245.646 -4611.458)" fill="#d86713" opacity="0.4"/>
            <path id="Path_149" data-name="Path 149" d="M4266.294,4628.522a4.741,4.741,0,0,1-4.164,1.1,5.906,5.906,0,0,1-3.512-2.842Z" transform="translate(-4246.125 -4611.458)" fill="#d37129"/>
            <path id="Path_150" data-name="Path 150" d="M4246.506,4624.153l-7.676-1.737s-1.786,5.5,1.842,6.5S4245.8,4627.788,4246.506,4624.153Z" transform="translate(-4235.571 -4609.179)" fill="#d86713" opacity="0.4"/>
            <path id="Path_151" data-name="Path 151" d="M4246.986,4624.153a4.738,4.738,0,0,1-4.164,1.1,5.906,5.906,0,0,1-3.512-2.842Z" transform="translate(-4236.051 -4609.179)" fill="#d37129"/>
            <path id="Path_152" data-name="Path 152" d="M4246.688,4597.616c-.046.207-.088.457-.145.7,1.015,2.094,2.938,4.771,6.194,5.391a9.356,9.356,0,0,0,8.72-2.709c-.1-2.1-1.28-4.495-5.577-5.756a11.468,11.468,0,0,0-7.31.182A2.96,2.96,0,0,0,4246.688,4597.616Z" transform="translate(-4239.825 -4594.737)" fill="#d86713" opacity="0.4"/>
            <path id="Path_153" data-name="Path 153" d="M4258.783,4613.909h0a.648.648,0,0,0,.773-.487l.129-.574a.648.648,0,0,0-.487-.772h0a.65.65,0,0,0-.773.488l-.129.572A.647.647,0,0,0,4258.783,4613.909Z" transform="translate(-4245.949 -4603.776)" fill="#d86713"/>
          </g>
        </g>
      </g>
      <path id="Path_154" data-name="Path 154" d="M4263.634,4575.066a7.576,7.576,0,0,1-1.8,2.666,5.157,5.157,0,0,0-1.987,3.1,2.741,2.741,0,0,0,2.394,3.343c1.164,0,2.275-1.585,2.958-5.373.038-.208,1.142-2.381,1.142-2.381Z" transform="translate(-4246.738 -4496.745)" fill="#d9935c"/>
    </g>
    <g id="Group_64" data-name="Group 64" transform="translate(87.851 29.068)">
      <path id="Path_155" data-name="Path 155" d="M4212.693,4321.337a25.721,25.721,0,1,0,25.721-25.721A25.75,25.75,0,0,0,4212.693,4321.337Zm1.678,0a24.043,24.043,0,1,1,24.043,24.042A24.07,24.07,0,0,1,4214.371,4321.337Z" transform="translate(-4212.693 -4295.616)" fill="#f9ddbf"/>
      <path id="Path_156" data-name="Path 156" d="M4265.356,4306.39a1.025,1.025,0,1,1,1.025-1.025A1.026,1.026,0,0,1,4265.356,4306.39Z" transform="translate(-4239.635 -4300.167)" fill="#f9ddbf"/>
      <path id="Path_157" data-name="Path 157" d="M4265.356,4390.862a1.025,1.025,0,1,1-1.025,1.025A1.025,1.025,0,0,1,4265.356,4390.862Z" transform="translate(-4239.635 -4345.311)" fill="#f9ddbf"/>
      <path id="Path_158" data-name="Path 158" d="M4224.238,4347.6a1.025,1.025,0,1,1-1.025,1.025A1.025,1.025,0,0,1,4224.238,4347.6Z" transform="translate(-4218.182 -4322.74)" fill="#f9ddbf"/>
      <path id="Path_159" data-name="Path 159" d="M4244.54,4383.441a1.025,1.025,0,1,1-1.45-.034A1.025,1.025,0,0,1,4244.54,4383.441Z" transform="translate(-4228.387 -4341.274)" fill="#f9ddbf"/>
      <path id="Path_160" data-name="Path 160" d="M4230.509,4370.1a1.025,1.025,0,1,1-1.45-.034A1.025,1.025,0,0,1,4230.509,4370.1Z" transform="translate(-4221.066 -4334.316)" fill="#f9ddbf"/>
      <path id="Path_161" data-name="Path 161" d="M4229.322,4329.088a1.025,1.025,0,1,1,1.369-.479A1.025,1.025,0,0,1,4229.322,4329.088Z" transform="translate(-4221.067 -4312.063)" fill="#f9ddbf"/>
      <path id="Path_162" data-name="Path 162" d="M4243.242,4312.738a1.025,1.025,0,1,1-.306,1.418A1.026,1.026,0,0,1,4243.242,4312.738Z" transform="translate(-4228.387 -4304.464)" fill="#f9ddbf"/>
      <path id="Path_163" data-name="Path 163" d="M4303.367,4346.883a1.025,1.025,0,1,1-1.025,1.025A1.025,1.025,0,0,1,4303.367,4346.883Z" transform="translate(-4259.468 -4322.365)" fill="#f9ddbf"/>
      <path id="Path_164" data-name="Path 164" d="M4284.515,4382.689a1.025,1.025,0,1,1-1.45.034A1.025,1.025,0,0,1,4284.515,4382.689Z" transform="translate(-4249.262 -4340.899)" fill="#f9ddbf"/>
      <path id="Path_165" data-name="Path 165" d="M4298.546,4369.354a1.025,1.025,0,1,1-1.45.034A1.024,1.024,0,0,1,4298.546,4369.354Z" transform="translate(-4256.583 -4333.941)" fill="#f9ddbf"/>
      <path id="Path_166" data-name="Path 166" d="M4298.283,4328.37a1.025,1.025,0,1,1,.479-1.369A1.025,1.025,0,0,1,4298.283,4328.37Z" transform="translate(-4256.583 -4311.688)" fill="#f9ddbf"/>
      <path id="Path_167" data-name="Path 167" d="M4284.364,4312.02a1.025,1.025,0,1,1-1.418.306A1.026,1.026,0,0,1,4284.364,4312.02Z" transform="translate(-4249.262 -4304.09)" fill="#f9ddbf"/>
      <path id="Path_168" data-name="Path 168" d="M4246.269,4322.666l8.379,5.79a.91.91,0,0,1,.094-.051l.9-15.831v15.832a1.031,1.031,0,1,1-1.464.768Z" transform="translate(-4230.211 -4304.464)" fill="#f9ddbf"/>
    </g>
  </g>
</svg>
