<svg xmlns="http://www.w3.org/2000/svg" width="303" height="181.706" viewBox="0 0 303 181.706">
  <g id="Group_740" data-name="Group 740" transform="translate(25.58 -110.69)">
    <g id="Group_722" data-name="Group 722" transform="translate(-25.58 110.69)" opacity="0.5">
      <circle id="Ellipse_11" data-name="Ellipse 11" cx="68.026" cy="68.026" r="68.026" transform="translate(0 43.599)" fill="#b8d1f4"/>
      <ellipse id="Ellipse_12" data-name="Ellipse 12" cx="99.772" cy="90.853" rx="99.772" ry="90.853" transform="translate(54.949)" fill="#b8d1f4"/>
      <circle id="Ellipse_13" data-name="Ellipse 13" cx="51.342" cy="51.342" r="51.342" transform="translate(200.316 74.316)" fill="#b8d1f4"/>
    </g>
    <g id="Group_723" data-name="Group 723" transform="translate(19.688 128.262)" opacity="0.5">
      <circle id="Ellipse_14" data-name="Ellipse 14" cx="55.773" cy="55.773" r="55.773" transform="translate(0 50.371)" fill="#b8d1f4"/>
      <circle id="Ellipse_15" data-name="Ellipse 15" cx="81.8" cy="81.8" r="81.8" transform="translate(45.051)" fill="#b8d1f4"/>
      <circle id="Ellipse_16" data-name="Ellipse 16" cx="42.093" cy="42.093" r="42.093" transform="translate(164.233 75.555)" fill="#b8d1f4"/>
    </g>
    <ellipse id="_Path_" data-name="&lt;Path&gt;" cx="117.241" cy="6.847" rx="117.241" ry="6.847" transform="translate(33.305 277.928)" fill="#f5f5f5"/>
    <g id="Group_731" data-name="Group 731" transform="translate(26.714 170.716)">
      <g id="Group_729" data-name="Group 729" transform="translate(0 19.746)">
        <g id="Group_728" data-name="Group 728">
          <g id="Group_724" data-name="Group 724" transform="translate(84.02 38.672)">
            <path id="Path_473" data-name="Path 473" d="M224.555,378.568c7.576,0,13.718-12.166,13.718-27.174s-6.142-27.175-13.718-27.175h-17.6v54.349Z" transform="translate(-193.172 -324.219)" fill="#263238"/>
            <ellipse id="Ellipse_17" data-name="Ellipse 17" cx="13.718" cy="27.175" rx="13.718" ry="27.175" transform="translate(0 0)" fill="#263238"/>
          </g>
          <g id="Group_725" data-name="Group 725" transform="translate(184.618 38.672)">
            <path id="Path_474" data-name="Path 474" d="M390.922,378.568c7.576,0,13.718-12.166,13.718-27.174s-6.142-27.175-13.718-27.175h-17.6v54.349Z" transform="translate(-359.538 -324.219)" fill="#263238"/>
            <ellipse id="Ellipse_18" data-name="Ellipse 18" cx="13.718" cy="27.175" rx="13.718" ry="27.175" transform="translate(0 0)" fill="#263238"/>
          </g>
          <path id="Path_475" data-name="Path 475" d="M70.686,358.844l-9.4-2.311A11.237,11.237,0,0,1,53.9,350.6l-.007-.013a11.238,11.238,0,0,0-2.606-3.418l-2.309-2.053a11.235,11.235,0,0,1-3.718-9.466l1.272-13.289a11.236,11.236,0,0,1,8-9.7l6.715-1.987,24.235-1.725Z" transform="translate(-45.211 -279.508)" fill="#407bff"/>
          <g id="Group_726" data-name="Group 726" transform="translate(14.584 38.672)">
            <path id="Path_476" data-name="Path 476" d="M109.725,378.568c7.576,0,13.718-12.166,13.718-27.174s-6.142-27.175-13.718-27.175h-17.6v54.349Z" transform="translate(-78.342 -324.219)" fill="#263238"/>
            <ellipse id="Ellipse_19" data-name="Ellipse 19" cx="13.718" cy="27.175" rx="13.718" ry="27.175" transform="translate(0 0)" fill="#263238"/>
            <ellipse id="Ellipse_20" data-name="Ellipse 20" cx="9.624" cy="21.481" rx="9.624" ry="21.481" transform="translate(4.094 5.694)" fill="#407bff"/>
          </g>
          <path id="Path_477" data-name="Path 477" d="M223.214,339.6l23.691-52.944s-35.449-26.391-80.391-26.391c-72.893,0-70.391,9.827-94.785,31.16l10.648,7.512c18.944,0,20.523,30.031,23.552,38.478a3.292,3.292,0,0,0,3.1,2.186H223.214" transform="translate(-55.694 -260.265)" fill="#407bff"/>
          <g id="Group_727" data-name="Group 727" transform="translate(115.183 38.672)">
            <path id="Path_478" data-name="Path 478" d="M276.091,378.568c7.577,0,13.718-12.166,13.718-27.174s-6.142-27.175-13.718-27.175h-17.6v54.349Z" transform="translate(-244.708 -324.219)" fill="#263238"/>
            <ellipse id="Ellipse_21" data-name="Ellipse 21" cx="13.718" cy="27.175" rx="13.718" ry="27.175" transform="translate(0 0)" fill="#263238"/>
            <ellipse id="Ellipse_22" data-name="Ellipse 22" cx="9.624" cy="21.481" rx="9.624" ry="21.481" transform="translate(4.094 5.694)" fill="#407bff"/>
          </g>
          <path id="Path_479" data-name="Path 479" d="M273.58,352.483c-2.184-9.918-12.62-36.261-25.135-36.261l-13.554-12.313h76.515c5.3,0,28.824,3.251,42.155,12.281,10.771,7.3,12.08,18.362,13.645,34.539.32,3.3-2.57,6.141-6.22,6.142-30.66.014-67.765.119-81.272.16A6.114,6.114,0,0,1,273.58,352.483Z" transform="translate(-120.196 -277.518)" fill="#407bff"/>
          <path id="Path_480" data-name="Path 480" d="M301.081,288.492H251.2a7.055,7.055,0,0,1-5.859-3.075c-5.552-8.225-15.378-16.559-22.577-20.506C273.194,264.911,301.081,288.492,301.081,288.492Z" transform="translate(-115.402 -262.102)" fill="#fff" opacity="0.8"/>
          <path id="Path_481" data-name="Path 481" d="M174.526,267.39c6.052,4.376,12.929,11.163,16.789,17.907a2.129,2.129,0,0,1-1.839,3.2H107.753c-8.666,0-5.792-21.6,39.505-23.217,4.268-.369,14.224-.382,19.727-.357A12.954,12.954,0,0,1,174.526,267.39Z" transform="translate(-68.398 -262.102)" fill="#fff" opacity="0.8"/>
          <path id="Path_482" data-name="Path 482" d="M312.031,371.967l26.2,1.977a1.624,1.624,0,0,1,1.5,1.619v1.789a1.624,1.624,0,0,1-1.624,1.624h-26.2a1.624,1.624,0,0,1-1.624-1.624v-3.767A1.624,1.624,0,0,1,312.031,371.967Z" transform="translate(-150 -304.421)" fill="#263238"/>
          <path id="Path_483" data-name="Path 483" d="M445.331,372.58l-7.216,1.448a1.625,1.625,0,0,0-1.3,1.593v1.965a1.624,1.624,0,0,0,1.624,1.624h7.623a1.624,1.624,0,0,0,1.613-1.816l-.407-3.412A1.624,1.624,0,0,0,445.331,372.58Z" transform="translate(-200.018 -304.653)" fill="#263238"/>
          <path id="Path_484" data-name="Path 484" d="M324.91,320.42l-36.581-1.778s-.372,6.481,13.181,7.878A35.679,35.679,0,0,0,324.91,320.42Z" transform="translate(-141.32 -283.343)" fill="#fff" opacity="0.8"/>
          <path id="Path_485" data-name="Path 485" d="M47.051,329.043a11.176,11.176,0,0,1,.753-3.112l2.477-.071s.117,9.509-3.473,8.913a2.049,2.049,0,0,1-.3-.071Z" transform="translate(-45.725 -286.196)" opacity="0.3"/>
          <path id="Path_486" data-name="Path 486" d="M420.5,320.624a41.263,41.263,0,0,1,3.6,2.171,25.882,25.882,0,0,1,4.805,4.154,13.342,13.342,0,0,1-1.552.353c-8.121,1.4-14.024-6.1-14.024-6.1Z" transform="translate(-190.736 -284.126)" fill="#fff" opacity="0.8"/>
          <path id="Path_487" data-name="Path 487" d="M364.173,338.479h25.889a4.43,4.43,0,0,1,2.533.814l4.525,3.172a4.543,4.543,0,0,1,1.9,3.089l1.153,8.57a3.856,3.856,0,0,1-3.862,4.451H368.629a4.543,4.543,0,0,1-3.987-2.48l-5.174-10.081a4.092,4.092,0,0,1,.328-4.4l1.293-1.66A3.877,3.877,0,0,1,364.173,338.479Z" transform="translate(-169.251 -291.185)" fill="#263238"/>
          <path id="Path_488" data-name="Path 488" d="M140.938,373.049h50.624a1.2,1.2,0,0,1,1.2,1.311l-.262,2.947a1.2,1.2,0,0,1-1.2,1.1H140.676a1.2,1.2,0,0,1-1.2-1.312l.262-2.947A1.205,1.205,0,0,1,140.938,373.049Z" transform="translate(-82.474 -304.851)" opacity="0.1"/>
          <path id="Path_489" data-name="Path 489" d="M164.619,264.527l3.034-.588-6.2,27.214h-2.9Z" transform="translate(-90.017 -261.717)" fill="#407bff"/>
          <path id="Path_490" data-name="Path 490" d="M179.883,313.988H169.519l-.268,1.089a1.551,1.551,0,0,0,1.543,2.047h6.271a2.786,2.786,0,0,0,2.551-2.047Z" transform="translate(-94.222 -281.503)" fill="#263238"/>
          <path id="Path_491" data-name="Path 491" d="M120.9,313.988H110.534l-.268,1.089a1.552,1.552,0,0,0,1.543,2.047h6.271a2.785,2.785,0,0,0,2.551-2.047Z" transform="translate(-70.904 -281.503)" fill="#263238"/>
        </g>
        <path id="Path_492" data-name="Path 492" d="M160.741,343.485a.345.345,0,0,1-.346-.339l-.761-35.629a.345.345,0,0,1,.338-.353h.008a.346.346,0,0,1,.346.339l.761,35.629a.346.346,0,0,1-.339.353Z" transform="translate(-90.445 -278.805)" opacity="0.1"/>
      </g>
      <g id="Group_730" data-name="Group 730" transform="translate(83.644)">
        <path id="Path_493" data-name="Path 493" d="M183.54,247.977V231.646a4.037,4.037,0,0,1,4.036-4.036H200.2a3.316,3.316,0,0,1,3.316,3.317v16.429Z" transform="translate(-183.54 -227.61)" fill="#3c74d6"/>
        <path id="Path_494" data-name="Path 494" d="M192,234.43v12.539h11.59v-2.62h-9.07V234.43Z" transform="translate(-186.884 -230.306)" fill="#f9f9f9"/>
      </g>
    </g>
    <g id="Group_739" data-name="Group 739" transform="translate(56.464 156.633)">
      <path id="Path_495" data-name="Path 495" d="M145.383,417.347l-3.572-.056-1.03-8.285,3.572.056Z" transform="translate(-112.742 -285.237)" fill="#ff8b7b"/>
      <path id="Path_496" data-name="Path 496" d="M110.283,416.444l-3.264-1.821,2.439-7.688,3.264,1.821Z" transform="translate(-99.396 -284.419)" fill="#ff8b7b"/>
      <path id="Path_497" data-name="Path 497" d="M101.724,418.291l3.787,2.148a.311.311,0,0,1,.145.362l-.953,3.109a.525.525,0,0,1-.768.294c-1.206-.712-2.055-1.288-3.59-2.159-.945-.535-3.848-2.052-5.151-2.792-1.275-.723-.743-2.125-.143-1.94,2.69.834,4.9,1.136,6.061.881A.866.866,0,0,1,101.724,418.291Z" transform="translate(-94.412 -288.515)" fill="#263238"/>
      <path id="Path_498" data-name="Path 498" d="M136.7,422.024l3.9.061a.311.311,0,0,1,.3.249l.656,3.185a.52.52,0,0,1-.524.627c-1.406-.046-3.438-.16-5.206-.188-2.067-.032-3.855.053-6.279.014-1.466-.023-1.85-1.512-1.234-1.636,2.8-.567,5.085-.6,7.523-2.047A1.652,1.652,0,0,1,136.7,422.024Z" transform="translate(-107.7 -290.383)" fill="#263238"/>
      <path id="Path_499" data-name="Path 499" d="M125.4,245.839a76.038,76.038,0,0,1-6.379,4.693c-1.118.719-2.246,1.433-3.452,2.083a22.891,22.891,0,0,1-3.945,1.772,10.63,10.63,0,0,1-1.249.316c-.23.042-.5.071-.748.1a5.877,5.877,0,0,1-.867-.01,4.758,4.758,0,0,1-3.227-1.664,6.79,6.79,0,0,1-1.317-2.509,12.42,12.42,0,0,1-.419-2.278,25.593,25.593,0,0,1,.779-8.176l2.656.367a35.272,35.272,0,0,0,.691,7.162,7.922,7.922,0,0,0,.48,1.456,2.15,2.15,0,0,0,.55.823c.07.051.1.044.106.025s-.008-.029.032-.039a5.6,5.6,0,0,0,.894-.284,21.321,21.321,0,0,0,2.966-1.579c1.015-.632,2.041-1.312,3.05-2.024,2.018-1.416,4.055-2.939,6-4.439Z" transform="translate(-98.093 -218.49)" fill="#ff8b7b"/>
      <g id="Group_732" data-name="Group 732" transform="translate(12.837 20.544)">
        <path id="Path_500" data-name="Path 500" d="M131.2,243.457c-1.629,3.667-7.9,7.467-11.375,9.056-1.027.47-.9,1.85-1.507,1.25,0,0-2.679-4.914-2.679-5.922s.886-.4,1.615-1.077c2.611-2.4,8.076-7.734,11.478-8.322C133.2,237.671,132.723,240.032,131.2,243.457Z" transform="translate(-115.641 -238.297)" fill="#407bff"/>
      </g>
      <path id="Path_501" data-name="Path 501" d="M114.74,252.955c-.346-.509-1.775.825-2.228,1.376s.793,2.577,1.171,3.641-.364,2.171.785,2.336c.611.088,2.329-.137,2.662-.579C117.909,258.692,115.565,254.173,114.74,252.955Z" transform="translate(-101.528 -223.502)" fill="#263238"/>
      <path id="Path_502" data-name="Path 502" d="M129.829,252.779c2.926-1.844,5.926-4.276,6.983-6.651.069-.163.144-.319.207-.475l.062-.6C133.105,245.727,130.41,249.741,129.829,252.779Z" transform="translate(-108.413 -220.423)" opacity="0.2"/>
      <path id="Path_503" data-name="Path 503" d="M106.934,239.328l2.307-3.416-3.765-1.534s-2.128,2.408-.623,4.529Z" transform="translate(-98.326 -216.203)" fill="#ff8b7b"/>
      <path id="Path_504" data-name="Path 504" d="M110.968,230.753l-3.461-.116-1.272,2.261L110,234.433Z" transform="translate(-99.086 -214.724)" fill="#ff8b7b"/>
      <path id="Path_505" data-name="Path 505" d="M140.781,409.01l.53,4.27,3.574.056-.53-4.27Z" transform="translate(-112.743 -285.239)" opacity="0.2"/>
      <path id="Path_506" data-name="Path 506" d="M113.5,408.76l-3.266-1.822-1.256,3.964,3.266,1.822Z" transform="translate(-100.169 -284.42)" opacity="0.2"/>
      <g id="Group_733" data-name="Group 733" transform="translate(22.978 20.112)">
        <path id="Path_507" data-name="Path 507" d="M155.331,239.469c-3.847,13.567-3.071,27.966-3.419,30.88-2.794-.2-13.315-.987-19.05-1.416-1.827-20.41,2.5-30.772,2.5-30.772s1.225-.238,2.891-.409c.522-.054,1.086-.1,1.673-.132.324-.019.654-.03.987-.036a70.838,70.838,0,0,1,8.1.6c.508.063,1.025.14,1.524.221.464.079.919.163,1.348.249C153.83,239.046,155.331,239.469,155.331,239.469Z" transform="translate(-132.412 -237.582)" fill="#407bff"/>
      </g>
      <path id="Path_508" data-name="Path 508" d="M145.652,237.586c-1.608.858-2.07,4,1.032,4.123a8.97,8.97,0,0,0,7.066-3.52Z" transform="translate(-114.171 -217.471)" fill="#263238"/>
      <path id="Path_509" data-name="Path 509" d="M163.517,250.327c-.342,1.312.049,7.3,1.42,8.779.187-1.918.436-3.92.765-5.967Z" transform="translate(-121.684 -222.508)" opacity="0.2"/>
      <path id="Path_510" data-name="Path 510" d="M154.006,223.4c-.7,2.567-1.57,7.3.124,9.178a8.363,8.363,0,0,1-6.372,2.1c-3.1-.122-2.627-1.637-1.726-2.7,2.957-.478,3.043-2.639,2.687-4.7Z" transform="translate(-114.551 -211.865)" fill="#ff8b7b"/>
      <path id="Path_511" data-name="Path 511" d="M154.051,226.019l-3.129,2.291a8.379,8.379,0,0,1,.143,1.456,3.6,3.6,0,0,0,2.942-2.336A3.923,3.923,0,0,0,154.051,226.019Z" transform="translate(-116.751 -212.899)" opacity="0.2"/>
      <path id="Path_512" data-name="Path 512" d="M145.232,217.462s-2.187-3.077-1.549-5.486C144.506,208.894,149.466,212.675,145.232,217.462Z" transform="translate(-113.843 -206.906)" fill="#263238"/>
      <path id="Path_513" data-name="Path 513" d="M153.9,213.329c-.48,3.512-.582,5.591-2.5,7.27a4.709,4.709,0,0,1-7.7-3c-.522-3.227.35-8.427,3.907-9.574A4.835,4.835,0,0,1,153.9,213.329Z" transform="translate(-113.843 -205.688)" fill="#ff8b7b"/>
      <path id="Path_514" data-name="Path 514" d="M145.644,222.911c0,.538-.491.664-.891.907a2.419,2.419,0,0,0-.688.733s-.51-.171-.3-1.082S145.644,222.407,145.644,222.911Z" transform="translate(-113.902 -211.557)" fill="#263238"/>
      <path id="Path_515" data-name="Path 515" d="M147.319,222.919c0,.923,1.022.793,1.8,1.052a3.261,3.261,0,0,1,1.62,1.12,1.318,1.318,0,0,0-.221-1.411C149.538,222.377,147.319,222.416,147.319,222.919Z" transform="translate(-115.327 -211.545)" fill="#263238"/>
      <path id="Path_516" data-name="Path 516" d="M151.147,208.788c-2.2.651-8.376,1.335-7.623-1.824,1.052-4.412,3.836-2.11,4.264-1.484,1.771-1.281,9.594-.161,8.034,2.37,1.693.261,2.683,2.11,1.459,3.022s-2.7,4.641-3.517,4.533a11.012,11.012,0,0,1-2.866-.808l1.65-2.223S150.51,210.429,151.147,208.788Z" transform="translate(-113.802 -204.321)" fill="#263238"/>
      <path id="Path_517" data-name="Path 517" d="M162.541,210.28c1.182-.293,2.338-.429,3.321.478C165.789,209.233,163.7,209.021,162.541,210.28Z" transform="translate(-121.345 -206.352)" fill="#263238"/>
      <path id="Path_518" data-name="Path 518" d="M160.506,221.967a3.368,3.368,0,0,1-2.2,1.328c-1.169.167-1.6-.915-1.148-1.939.408-.922,1.508-2.119,2.62-1.816A1.513,1.513,0,0,1,160.506,221.967Z" transform="translate(-119.145 -210.318)" fill="#ff8b7b"/>
      <g id="Group_734" data-name="Group 734" transform="translate(19.457 51.465)">
        <path id="Path_519" data-name="Path 519" d="M134.374,365.163l6.046.092s-3.493-23.887-2.948-35c.166-3.381-.376-8.111.517-13.18,1.128-6.386,1.671-8.934,3.13-17.005,1.04-5.755,1.965-9.7,1.965-9.7l-12.523-.931s-4.09,28.788-3.968,39.688C126.717,340.453,134.374,365.163,134.374,365.163Z" transform="translate(-126.59 -289.432)" fill="#407bff"/>
        <path id="Path_520" data-name="Path 520" d="M134.374,365.163l6.046.092s-3.493-23.887-2.948-35c.166-3.381-.376-8.111.517-13.18,1.128-6.386,1.671-8.934,3.13-17.005,1.04-5.755,1.965-9.7,1.965-9.7l-12.523-.931s-4.09,28.788-3.968,39.688C126.717,340.453,134.374,365.163,134.374,365.163Z" transform="translate(-126.59 -289.432)" opacity="0.6"/>
      </g>
      <path id="Path_521" data-name="Path 521" d="M137.99,335.146a42.81,42.81,0,0,0-.525,8.017c-1.041,2.941-1.949,5.727-2.58,8.2-1.108,4.338-2.861,10.914-4.57,17.237-1.856-7.4-3.662-15.96-3.72-21.415Z" transform="translate(-107.134 -256.039)" opacity="0.2"/>
      <g id="Group_735" data-name="Group 735" transform="translate(8.01 51.967)">
        <path id="Path_522" data-name="Path 522" d="M129.833,290.263s-9,22.734-12.409,32.627c-3.735,10.833-9.766,40.081-9.766,40.081l5.69,3.228s8.865-24.112,12.536-34.664c4.182-12.02,15.7-31.015,16.24-40.357Z" transform="translate(-107.659 -290.263)" fill="#407bff"/>
        <path id="Path_523" data-name="Path 523" d="M129.833,290.263s-9,22.734-12.409,32.627c-3.735,10.833-9.766,40.081-9.766,40.081l5.69,3.228s8.865-24.112,12.536-34.664c4.182-12.02,15.7-31.015,16.24-40.357Z" transform="translate(-107.659 -290.263)" opacity="0.6"/>
      </g>
      <path id="Path_524" data-name="Path 524" d="M106.417,408.384l6.7,3.8,1.135-2-7.416-4.378Z" transform="translate(-99.158 -283.971)" fill="#407bff"/>
      <path id="Path_525" data-name="Path 525" d="M137.673,413.276l7.206.113.037-2.328-8.053-.249Z" transform="translate(-111.193 -285.951)" fill="#407bff"/>
      <path id="Path_526" data-name="Path 526" d="M152.433,217.573c-.021.287-.191.509-.379.495s-.323-.258-.3-.545.19-.509.379-.495S152.455,217.286,152.433,217.573Z" transform="translate(-117.079 -209.344)" fill="#263238"/>
      <path id="Path_527" data-name="Path 527" d="M146.115,217.173c-.021.287-.19.509-.379.5s-.323-.258-.3-.545.19-.509.379-.5S146.137,216.886,146.115,217.173Z" transform="translate(-114.581 -209.186)" fill="#263238"/>
      <path id="Path_528" data-name="Path 528" d="M146.988,217.894a10.307,10.307,0,0,1-1.555,2.355,1.661,1.661,0,0,0,1.353.36Z" transform="translate(-114.581 -209.687)" fill="#ff5652"/>
      <path id="Path_529" data-name="Path 529" d="M147.173,224.82a2.375,2.375,0,0,0,1.693-.821.085.085,0,0,0-.135-.1,2.286,2.286,0,0,1-1.922.752.086.086,0,0,0-.091.079.084.084,0,0,0,.078.09A2.806,2.806,0,0,0,147.173,224.82Z" transform="translate(-115.09 -212.047)" fill="#263238"/>
      <path id="Path_530" data-name="Path 530" d="M152.987,215.626a.172.172,0,0,0,.082-.027.17.17,0,0,0,.05-.234,1.679,1.679,0,0,0-1.322-.8.169.169,0,0,0,0,.339h0a1.34,1.34,0,0,1,1.04.643A.169.169,0,0,0,152.987,215.626Z" transform="translate(-117.03 -208.371)" fill="#263238"/>
      <path id="Path_531" data-name="Path 531" d="M144.125,214.83a.169.169,0,0,0,.149-.057,1.342,1.342,0,0,1,1.12-.492.169.169,0,0,0,.045-.336,1.682,1.682,0,0,0-1.42.607.169.169,0,0,0,.018.238A.165.165,0,0,0,144.125,214.83Z" transform="translate(-114.006 -208.123)" fill="#263238"/>
      <g id="Group_736" data-name="Group 736" transform="translate(5.438 128.257)">
        <path id="Path_532" data-name="Path 532" d="M103.944,418.149a4.174,4.174,0,0,0,.876.349.085.085,0,0,0,.1-.122c-.073-.135-.726-1.319-1.169-1.337a.269.269,0,0,0-.244.136.511.511,0,0,0-.068.475A1.084,1.084,0,0,0,103.944,418.149Zm.721.125c-.588-.194-.982-.443-1.071-.682a.347.347,0,0,1,.051-.324c.036-.055.07-.061.1-.06C103.972,417.218,104.392,417.807,104.666,418.274Z" transform="translate(-103.404 -416.67)" fill="#407bff"/>
        <path id="Path_533" data-name="Path 533" d="M105.492,418.249a.084.084,0,0,0,.047.011.085.085,0,0,0,.071-.048,2.544,2.544,0,0,0,.259-1.478.464.464,0,0,0-.259-.273h0a.276.276,0,0,0-.343.06c-.262.309-.027,1.342.2,1.7A.079.079,0,0,0,105.492,418.249Zm.087-1.614a.3.3,0,0,1,.133.16,2.036,2.036,0,0,1-.186,1.182c-.182-.424-.286-1.163-.131-1.345.015-.017.047-.056.149-.013h0A.226.226,0,0,1,105.579,416.635Z" transform="translate(-104.095 -416.429)" fill="#407bff"/>
        <path id="Path_534" data-name="Path 534" d="M140.361,422.307a.085.085,0,0,0,.013-.155c-.161-.086-1.585-.837-2.023-.6a.27.27,0,0,0-.143.223h0a.475.475,0,0,0,.152.414c.386.353,1.412.229,1.989.123Zm-1.9-.62a3.494,3.494,0,0,1,1.606.5,2.286,2.286,0,0,1-1.594-.123.309.309,0,0,1-.1-.273.1.1,0,0,1,.055-.089A.178.178,0,0,1,138.463,421.686Z" transform="translate(-117.162 -418.436)" fill="#407bff"/>
        <path id="Path_535" data-name="Path 535" d="M140.943,421.768a.091.091,0,0,0,.022-.011.083.083,0,0,0,.036-.076,2.412,2.412,0,0,0-.533-1.384.617.617,0,0,0-.467-.152h0c-.233.02-.3.137-.319.232-.071.4.77,1.188,1.2,1.388A.085.085,0,0,0,140.943,421.768Zm-1.014-1.439a.378.378,0,0,1,.086-.016h0a.448.448,0,0,1,.343.112,1.98,1.98,0,0,1,.454,1.108c-.435-.271-1.007-.887-.963-1.128C139.852,420.39,139.858,420.352,139.929,420.329Zm.079-.1h0Z" transform="translate(-117.744 -417.897)" fill="#407bff"/>
      </g>
      <g id="Group_738" data-name="Group 738" transform="translate(40.524 21.687)">
        <path id="Path_536" data-name="Path 536" d="M168.635,244.269c.789,1.463,1.468,2.907,2.166,4.378.675,1.474,1.312,2.968,1.929,4.479s1.176,3.058,1.688,4.642l.37,1.2.328,1.232c.108.411.193.847.29,1.269l.07.325.07.432c.051.3.052.532.077.8a16.784,16.784,0,0,1-.115,2.738c-.1.857-.221,1.687-.364,2.5-.3,1.631-.657,3.221-1.062,4.791A96.356,96.356,0,0,1,171.2,282.3l-2.585-.712c.542-3.1,1.06-6.234,1.52-9.324.223-1.547.426-3.089.565-4.608.073-.758.126-1.509.151-2.237a14.552,14.552,0,0,0-.051-2.029c-.024-.125-.033-.293-.063-.383l-.034-.154-.074-.253c-.107-.347-.195-.689-.313-1.039l-.359-1.052-.391-1.062c-.539-1.417-1.145-2.834-1.756-4.255s-1.285-2.828-1.956-4.235c-.652-1.408-1.361-2.827-2.026-4.193Z" transform="translate(-162.38 -241.8)" fill="#ff8b7b"/>
        <g id="Group_737" data-name="Group 737">
          <path id="Path_537" data-name="Path 537" d="M166.8,240.5c2.56.8,5.954,11.428,7.294,15.954a2.283,2.283,0,0,1,.426,2.171l-5.221,2.3c-1.226-.581-1.954-1.87-1.5-2.491-2.732-5.16-4.882-9.013-5.913-12.092C160.356,241.786,162.854,239.262,166.8,240.5Z" transform="translate(-161.43 -240.186)" fill="#407bff"/>
        </g>
        <path id="Path_538" data-name="Path 538" d="M172.275,270.978c-.529.314,1.086,1.968,1.608,2.454s2.249-.782,3.334-1.1,2.145.495,2.379-.643c.125-.6.005-2.332-.417-2.691C178.195,268.163,173.541,270.228,172.275,270.978Z" transform="translate(-165.676 -251.5)" fill="#263238"/>
        <path id="Path_539" data-name="Path 539" d="M171.02,303.468l-2.789,2.32,3.469,2.506s2.283-2.414,1.258-3.859Z" transform="translate(-164.118 -265.202)" fill="#ff8b7b"/>
        <path id="Path_540" data-name="Path 540" d="M165.6,310.551l3.433,1.673,1.629-2.413L167.19,307.3Z" transform="translate(-163.077 -266.719)" fill="#ff8b7b"/>
      </g>
    </g>
  </g>
</svg>
