<svg xmlns="http://www.w3.org/2000/svg" xmlns:xlink="http://www.w3.org/1999/xlink" width="326.624" height="232.528" viewBox="0 0 326.624 232.528">
  <defs>
    <clipPath id="clip-path">
      <path id="Path_288" data-name="Path 288" d="M3955.078,4004.072h92.155v-27.49h-92.155C3951.484,3976.582,3951.484,4004.072,3955.078,4004.072Z" transform="translate(-3952.383 -3976.582)" fill="#fff"/>
    </clipPath>
    <clipPath id="clip-path-2">
      <path id="Path_304" data-name="Path 304" d="M4023.941,4067.13H3904.091v28.206h119.851C4027.629,4095.335,4027.629,4067.13,4023.941,4067.13Z" transform="translate(-3904.091 -4067.13)" fill="#fff"/>
    </clipPath>
  </defs>
  <g id="Group_309" data-name="Group 309" transform="translate(-3616.302 -3551)">
    <path id="Path_269" data-name="Path 269" d="M3966.464,3645.583a94.648,94.648,0,0,1-112.477,92.89,94.549,94.549,0,1,1-61.511-144.3,94.593,94.593,0,0,1,173.988,51.412Z" transform="translate(-39.006)" fill="#00a99d" opacity="0.49"/>
    <path id="Path_270" data-name="Path 270" d="M3947.227,3770.31a74.646,74.646,0,0,1-106.715,42.978,74.567,74.567,0,1,1-11.8-123.148,74.6,74.6,0,0,1,118.51,80.171Z" transform="translate(-62.572 -74.783)" fill="#00a99d" opacity="0.49"/>
    <g id="Group_215" data-name="Group 215" transform="translate(3698.456 3568.444)">
      <g id="Group_214" data-name="Group 214" transform="translate(0 0)">
        <path id="Path_271" data-name="Path 271" d="M3843.906,3748.556c-6.491-.964-11.506-12.842-7-19.98s7-9.322,3.242-16.459-14.652-12.773-11.27-21.789,14.276-9.392,11.645-17.656-13.2-11.607-8.028-24.537c4.672-11.676,15.311-5.708,15.311-19.2,0-11.493-16.349-22.964-2.023-31.4,11.86-6.983,19.686,11.516,19.539,21.666-.261,17.645-13.883,22.446-8.646,33.558,2.609,5.53,12.845,8.98,10.591,22.88s-15.474,12.432-15.474,21.073,16.019,13.2,14.7,29.526C3865.322,3740.641,3863.115,3751.41,3843.906,3748.556Z" transform="translate(-3828.236 -3596)" fill="#a2ccda"/>
      </g>
    </g>
    <g id="Group_217" data-name="Group 217" transform="translate(3711.152 3580.081)">
      <g id="Group_216" data-name="Group 216" transform="translate(0 0)">
        <path id="Path_272" data-name="Path 272" d="M3868.316,3769.015h-.9c0-2.3,1.889-6.52,3.892-10.984a73.226,73.226,0,0,0,3.648-9.116c2.606-9.558-3.919-17.67-8.684-23.594-2.275-2.829-4.241-5.271-4.809-7.3-1.887-6.76,2.268-10.5,6.287-14.125,2.838-2.558,5.773-5.2,6.686-8.938,1.3-5.335-1.081-8.169-3.834-11.448-2.593-3.086-5.53-6.583-6.039-12.8-.313-3.833,1.93-6.88,4.527-10.41,2.906-3.95,6.2-8.427,7.154-15.378a26.55,26.55,0,0,0-4.452-18.346l.715-.553a27.489,27.489,0,0,1,4.631,19.021c-.983,7.18-4.35,11.755-7.321,15.791-2.489,3.384-4.639,6.3-4.353,9.8.484,5.93,3.324,9.311,5.83,12.293,2.79,3.324,5.428,6.462,4.019,12.242-.976,4.008-4.019,6.748-6.959,9.4-3.989,3.594-7.755,6.989-6.021,13.209.52,1.855,2.429,4.231,4.643,6.982,4.888,6.074,11.581,14.395,8.852,24.4a73.191,73.191,0,0,1-3.7,9.245C3870.252,3762.582,3868.316,3766.905,3868.316,3769.015Z" transform="translate(-3860.991 -3626.021)" fill="#fff"/>
      </g>
    </g>
    <g id="Group_219" data-name="Group 219" transform="translate(3646.211 3625.804)">
      <g id="Group_218" data-name="Group 218" transform="translate(0 0)">
        <path id="Path_273" data-name="Path 273" d="M3758.328,3845.385c-4.552,2.174-12.855-3.246-13.048-9.735s.458-8.951-5-11.888-14.832-1.851-16.551-9.053,5.07-12.124-.159-16.265-13.4-1.729-15.66-12.2c-2.039-9.453,7.308-10.219,1.512-18.823-4.938-7.33-20.292-7.62-14.78-19.154,4.563-9.549,17.5-1.114,21.768,5.423,7.417,11.364.79,20.279,8.906,25.114,4.042,2.406,12.049.209,16.585,10.041s-4.525,14.578-.813,20.088,15.885,1.535,22.059,12.515C3768.585,3831.136,3771.807,3838.951,3758.328,3845.385Z" transform="translate(-3693.461 -3743.975)" fill="#a2ccda"/>
      </g>
    </g>
    <g id="Group_221" data-name="Group 221" transform="translate(3655.726 3633.581)">
      <g id="Group_220" data-name="Group 220" transform="translate(0)">
        <path id="Path_274" data-name="Path 274" d="M3776.361,3857.569c-1-1.486-1.607-5-2.252-8.715a56.036,56.036,0,0,0-1.584-7.368c-2.427-7.164-9.738-9.428-15.609-11.249-2.677-.828-4.99-1.545-6.241-2.611-4.157-3.544-3.108-7.747-2.093-11.813.706-2.836,1.437-5.768.424-8.512-1.444-3.911-4.025-4.652-7.294-5.589-2.994-.859-6.386-1.832-9.4-5.6-1.871-2.341-1.748-5.266-1.607-8.653.156-3.757.331-8.012-2.034-12.83a20.321,20.321,0,0,0-10.661-9.734l.284-.857a20.832,20.832,0,0,1,11.186,10.193c2.47,5.024,2.282,9.593,2.129,13.265-.14,3.339-.249,5.974,1.41,8.051,2.835,3.549,6.082,4.479,8.947,5.3,3.235.929,6.289,1.8,7.892,6.145,1.111,3.006.345,6.075-.395,9.043-.992,3.974-1.928,7.728,1.8,10.907,1.11.947,3.339,1.637,5.921,2.437,5.75,1.781,13.622,4.22,16.2,11.822a56.618,56.618,0,0,1,1.619,7.5c.6,3.46,1.219,7.038,2.114,8.365Z" transform="translate(-3718.005 -3764.035)" fill="#fff"/>
      </g>
    </g>
    <g id="Group_223" data-name="Group 223" transform="translate(3616.302 3688.506)">
      <g id="Group_222" data-name="Group 222" transform="translate(0 0)">
        <path id="Path_275" data-name="Path 275" d="M3710.869,3952.018c-2.184,3.843-10.87,4.106-14.259-.464s-4.155-6.666-9.556-6.042-11.59,6.1-16.435,1.782-2.429-11.257-8.264-11.615-10.505,5.472-17.373-.924c-6.2-5.776.139-11.011-8.341-14.294-7.224-2.8-18.41,4.686-20.224-6.368-1.5-9.152,12.028-9.569,18.369-7.007,11.027,4.457,10.729,14.186,18.987,13.6,4.112-.293,8.768-5.887,16.957-1.088s4.048,12.749,9.479,14.852,12.191-6.856,22.131-2.051C3711.106,3936.633,3717.338,3940.639,3710.869,3952.018Z" transform="translate(-3616.302 -3905.729)" fill="#a2ccda"/>
      </g>
    </g>
    <g id="Group_225" data-name="Group 225" transform="translate(3624.345 3694.471)">
      <g id="Group_224" data-name="Group 224">
        <path id="Path_276" data-name="Path 276" d="M3725.667,3959.915c-1.476-.572-3.678-2.795-6.007-5.15a48.859,48.859,0,0,0-4.824-4.5c-5.311-3.918-11.686-1.891-16.808-.261-2.35.746-4.384,1.394-5.821,1.25-4.8-.468-6.157-4.034-7.47-7.481-.91-2.385-1.848-4.852-3.939-6.307-2.974-2.074-5.19-1.316-7.994-.356-2.59.884-5.531,1.888-9.6.682-2.539-.752-3.921-2.924-5.524-5.441-1.764-2.772-3.766-5.915-7.871-8.187a17.67,17.67,0,0,0-12.5-1.652l-.256-.867a18.33,18.33,0,0,1,13.192,1.729c4.3,2.383,6.464,5.771,8.2,8.493,1.567,2.46,2.8,4.4,5.018,5.058,3.8,1.125,6.47.211,9.054-.671,2.806-.958,5.456-1.863,8.8.471,2.318,1.614,3.308,4.213,4.266,6.726,1.271,3.338,2.472,6.491,6.713,6.9,1.265.125,3.206-.5,5.458-1.211,5.038-1.6,11.937-3.8,17.618.395a49.442,49.442,0,0,1,4.931,4.589c2.161,2.184,4.4,4.441,5.691,4.944Z" transform="translate(-3637.052 -3921.116)" fill="#fff"/>
      </g>
    </g>
    <g id="Group_227" data-name="Group 227" transform="translate(3704.531 3718.895)">
      <g id="Group_226" data-name="Group 226" transform="translate(0 0)">
        <path id="Path_277" data-name="Path 277" d="M3868.475,4040.721h-18.957l-5.607-45.438s.785-11.8,16.607-11.13c12.2.519,13.565,11.13,13.565,11.13Z" transform="translate(-3843.91 -3984.124)" fill="#2a2873"/>
      </g>
    </g>
    <g id="Group_243" data-name="Group 243" transform="translate(3834.131 3624.923)">
      <g id="Group_230" data-name="Group 230" transform="translate(0)">
        <g id="Group_229" data-name="Group 229">
          <g id="Group_228" data-name="Group 228">
            <path id="Path_278" data-name="Path 278" d="M4183.373,3873.691c-4.518-12.2-7.953-32.021-1.807-44.727,6.776-14.006,18.9-12.574,20.783-23.042,3.162-17.619-4.066-23.041-7.681-36.594-2.677-10.041.495-26.546,15.36-27.56,19.88-1.355,15.848,18.286,31.174,17.62,10.391-.452,31.324-22.462,42.918-1.807,14.458,25.752-29.43,28.667-31.624,34.335-5.421,14.006,17.323-1.444,14.91,16.264-1.355,9.94-26.656,7.229-26.2,21.235.363,11.3,0,21.685-16.265,36.143s-23.042,13.554-23.042,13.554Z" transform="translate(-4178.243 -3741.702)" fill="#a2ccda"/>
          </g>
        </g>
      </g>
      <g id="Group_232" data-name="Group 232" transform="translate(13.052 20.329)">
        <g id="Group_231" data-name="Group 231">
          <path id="Path_279" data-name="Path 279" d="M4212.745,3914.477l-.833-.349a79.821,79.821,0,0,1,5.413-8.558c7.971-11.823,22.807-33.827,22.087-46.863-.958-17.371,6.128-41.278,21.146-51.373a96.009,96.009,0,0,1,30.7-13.189l.177.886a95.02,95.02,0,0,0-30.37,13.054c-14.743,9.908-21.695,33.451-20.751,50.574.735,13.338-13.647,34.67-22.24,47.417A82.6,82.6,0,0,0,4212.745,3914.477Z" transform="translate(-4211.912 -3794.144)" fill="#fff"/>
        </g>
      </g>
      <g id="Group_234" data-name="Group 234" transform="translate(12.182 13.256)">
        <g id="Group_233" data-name="Group 233">
          <path id="Path_280" data-name="Path 280" d="M4209.9,3896.905c-.009-.08-.883-8.038.827-25.235,1.3-13.02,5.022-18.692,10.18-26.542,1.723-2.621,3.678-5.594,5.721-9.147,15.007-26.086,7.077-49.228,3.691-59.109l-.233-.68.856-.292.232.68c3.425,10,11.449,33.41-3.762,59.85-2.057,3.577-4.019,6.561-5.749,9.2-5.088,7.741-8.764,13.335-10.037,26.136-1.7,17.079-.835,24.962-.827,25.039Z" transform="translate(-4209.669 -3775.9)" fill="#fff"/>
        </g>
      </g>
      <g id="Group_236" data-name="Group 236" transform="translate(18.455 60.677)">
        <g id="Group_235" data-name="Group 235">
          <path id="Path_281" data-name="Path 281" d="M4226.654,3978.66l-.8-.415c5.174-10,9.5-15.435,17.79-22.368.647-.542,1.314-1.09,1.989-1.645,8.207-6.749,17.509-14.4,15.032-27.782-2.246-12.121.014-21.614,6.713-28.218l.633.645c-6.473,6.38-8.646,15.6-6.461,27.41,2.576,13.907-7.358,22.079-15.344,28.644-.674.554-1.337,1.1-1.984,1.641C4236.033,3963.415,4231.763,3968.784,4226.654,3978.66Z" transform="translate(-4225.851 -3898.232)" fill="#fff"/>
        </g>
      </g>
      <g id="Group_238" data-name="Group 238" transform="translate(31.218 11.759)">
        <g id="Group_237" data-name="Group 237">
          <path id="Path_282" data-name="Path 282" d="M4262.471,3774.7a1.922,1.922,0,1,1-1.026-2.518A1.921,1.921,0,0,1,4262.471,3774.7Z" transform="translate(-4258.776 -3772.037)" fill="#fff"/>
        </g>
      </g>
      <g id="Group_240" data-name="Group 240" transform="translate(90.562 18.848)">
        <g id="Group_239" data-name="Group 239">
          <path id="Path_283" data-name="Path 283" d="M4415.563,3792.991a1.922,1.922,0,1,1-1.026-2.517A1.92,1.92,0,0,1,4415.563,3792.991Z" transform="translate(-4411.868 -3790.324)" fill="#fff"/>
        </g>
      </g>
      <g id="Group_242" data-name="Group 242" transform="translate(58.258 58.797)">
        <g id="Group_241" data-name="Group 241">
          <path id="Path_284" data-name="Path 284" d="M4332.228,3896.048a1.923,1.923,0,1,1-1.028-2.517A1.922,1.922,0,0,1,4332.228,3896.048Z" transform="translate(-4328.532 -3893.381)" fill="#fff"/>
        </g>
      </g>
    </g>
    <g id="Group_245" data-name="Group 245" transform="translate(3839.934 3749.116)">
      <g id="Group_244" data-name="Group 244">
        <path id="Path_285" data-name="Path 285" d="M4193.211,4078.014a15.929,15.929,0,1,1,15.928,15.929A15.928,15.928,0,0,1,4193.211,4078.014Z" transform="translate(-4193.211 -4062.086)" fill="#2b79e6"/>
      </g>
    </g>
    <g id="Group_261" data-name="Group 261" transform="translate(3739.39 3711.827)">
      <g id="Group_247" data-name="Group 247" transform="translate(0)">
        <g id="Group_246" data-name="Group 246">
          <path id="Path_286" data-name="Path 286" d="M3942.308,4001.669h93.685V3965.89h-93.685c-4.679,0-8.473,5.493-8.473,12.268V3989.4C3933.835,3996.177,3937.629,4001.669,3942.308,4001.669Z" transform="translate(-3933.835 -3965.89)" fill="#823024"/>
        </g>
      </g>
      <g id="Group_260" data-name="Group 260" transform="translate(7.19 4.145)">
        <path id="Path_287" data-name="Path 287" d="M3955.078,4004.072h92.155v-27.49h-92.155C3951.484,3976.582,3951.484,4004.072,3955.078,4004.072Z" transform="translate(-3952.383 -3976.582)" fill="#fff"/>
        <g id="Group_259" data-name="Group 259" clip-path="url(#clip-path)">
          <g id="Group_258" data-name="Group 258" transform="translate(-2.717 3.522)">
            <g id="Group_249" data-name="Group 249" transform="translate(0 19.257)">
              <g id="Group_248" data-name="Group 248">
                <rect id="Rectangle_89" data-name="Rectangle 89" width="99.334" height="1.444" fill="#b3e3ef"/>
              </g>
            </g>
            <g id="Group_251" data-name="Group 251" transform="translate(0 14.443)">
              <g id="Group_250" data-name="Group 250">
                <rect id="Rectangle_90" data-name="Rectangle 90" width="99.334" height="1.444" fill="#b3e3ef"/>
              </g>
            </g>
            <g id="Group_253" data-name="Group 253" transform="translate(0 9.628)">
              <g id="Group_252" data-name="Group 252">
                <rect id="Rectangle_91" data-name="Rectangle 91" width="99.334" height="1.444" fill="#b3e3ef"/>
              </g>
            </g>
            <g id="Group_255" data-name="Group 255" transform="translate(0 4.814)">
              <g id="Group_254" data-name="Group 254">
                <rect id="Rectangle_92" data-name="Rectangle 92" width="99.334" height="1.444" fill="#b3e3ef"/>
              </g>
            </g>
            <g id="Group_257" data-name="Group 257">
              <g id="Group_256" data-name="Group 256">
                <rect id="Rectangle_93" data-name="Rectangle 93" width="99.334" height="1.444" fill="#b3e3ef"/>
              </g>
            </g>
          </g>
        </g>
      </g>
    </g>
    <g id="Group_263" data-name="Group 263" transform="translate(3772.108 3709.212)">
      <g id="Group_262" data-name="Group 262" transform="translate(0 0)">
        <path id="Path_289" data-name="Path 289" d="M4021.543,3962.534s-5.989,8.478-1.843,13.563,38.005,1.1,39.388-4.553-2.073-12.4-2.073-12.4Z" transform="translate(-4018.239 -3959.143)" fill="#9b9b9b"/>
      </g>
    </g>
    <g id="Group_265" data-name="Group 265" transform="translate(3773.417 3707.923)">
      <g id="Group_264" data-name="Group 264" transform="translate(0 0)">
        <rect id="Rectangle_94" data-name="Rectangle 94" width="59.349" height="4.351" fill="#0c5c9b"/>
      </g>
    </g>
    <g id="Group_292" data-name="Group 292" transform="translate(3745.317 3612.684)">
      <g id="Group_267" data-name="Group 267" transform="translate(5.29 26.389)">
        <g id="Group_266" data-name="Group 266">
          <path id="Path_290" data-name="Path 290" d="M3980.9,3778.205c-6.45.922-21.884,37.162-17.277,45.455s29.945,17.966,29.945,17.966l-1.383-14.282s-17.352-7.371-15.971-11.977,11.365-21.805,11.365-21.805Z" transform="translate(-3962.773 -3778.205)" fill="#ff645f"/>
        </g>
      </g>
      <g id="Group_269" data-name="Group 269" transform="translate(53.939 26.389)">
        <g id="Group_268" data-name="Group 268">
          <path id="Path_291" data-name="Path 291" d="M4100.931,3778.205c6.45.922,21.895,37.162,17.289,45.455s-29.946,17.966-29.946,17.966l1.383-14.282s17.353-7.371,15.97-11.977-11.363-21.805-11.363-21.805Z" transform="translate(-4088.274 -3778.205)" fill="#ff645f"/>
        </g>
      </g>
      <g id="Group_271" data-name="Group 271" transform="translate(17.944 25.347)">
        <g id="Group_270" data-name="Group 270">
          <path id="Path_292" data-name="Path 292" d="M4004.856,3775.517h35.427a9.242,9.242,0,0,1,9.433,9.358s-6.754,27.581-6.834,36.83c-.043,5.071,1.6,20.223,1.6,20.223h-43.809s2.019-15.836,1.978-21.144c-.071-9.031-7.227-35.91-7.227-35.91A9.242,9.242,0,0,1,4004.856,3775.517Z" transform="translate(-3995.417 -3775.517)" fill="#ff645f"/>
        </g>
      </g>
      <g id="Group_273" data-name="Group 273" transform="translate(40.571 15.026)">
        <g id="Group_272" data-name="Group 272">
          <path id="Path_293" data-name="Path 293" d="M4062.852,3766.138a4.058,4.058,0,0,1-4.407,3.525c-4.341-.207-4.656-3.525-4.656-3.525v-17.246h9.063Z" transform="translate(-4053.789 -3748.892)" fill="#f7958d"/>
        </g>
      </g>
      <g id="Group_275" data-name="Group 275" transform="translate(33.91 3.077)">
        <g id="Group_274" data-name="Group 274">
          <path id="Path_294" data-name="Path 294" d="M4058.988,3729.258c0,6.181-5.011,15.389-11.19,15.389s-11.193-9.208-11.193-15.389a11.192,11.192,0,0,1,22.383,0Z" transform="translate(-4036.605 -3718.067)" fill="#fca89e"/>
        </g>
      </g>
      <g id="Group_277" data-name="Group 277" transform="translate(15.43 60.143)">
        <g id="Group_276" data-name="Group 276">
          <rect id="Rectangle_95" data-name="Rectangle 95" width="59.347" height="35.381" fill="#2a2873"/>
        </g>
      </g>
      <g id="Group_279" data-name="Group 279" transform="translate(39.645 71.771)">
        <g id="Group_278" data-name="Group 278">
          <path id="Path_295" data-name="Path 295" d="M4062.315,3900.734a5.458,5.458,0,1,1-5.458-5.457A5.458,5.458,0,0,1,4062.315,3900.734Z" transform="translate(-4051.4 -3895.277)" fill="#0c5c9b"/>
        </g>
      </g>
      <g id="Group_281" data-name="Group 281" transform="translate(28.373 114.401)">
        <g id="Group_280" data-name="Group 280">
          <path id="Path_296" data-name="Path 296" d="M4035.077,4005.251a14.921,14.921,0,0,1-4.139,2.3c-3.178,1.337-9.465,3.824-8.523,6.565,1.267,3.686,5.7,3.417,8.639,2.535a56.624,56.624,0,0,0,13-6.408Z" transform="translate(-4022.32 -4005.251)" fill="#2b79e6"/>
        </g>
      </g>
      <g id="Group_283" data-name="Group 283" transform="translate(41.333 82.194)">
        <g id="Group_282" data-name="Group 282">
          <path id="Path_297" data-name="Path 297" d="M4063.171,3944.754c10.772-7.865,16.4-13.676,28.5-21.024,2.877-1.749,4.85-2.271,9.842-.313,4.25,1.666,3.793,8.98,1.474,12.028-6.958,9.146-33.771,21.777-39.193,23.69-2.335.824-10.6-6.133-7.244-9.463C4058.2,3948.031,4060.255,3946.881,4063.171,3944.754Z" transform="translate(-4055.755 -3922.166)" fill="#b3e3ef"/>
        </g>
      </g>
      <g id="Group_285" data-name="Group 285" transform="translate(43.779 111.59)">
        <g id="Group_284" data-name="Group 284">
          <path id="Path_298" data-name="Path 298" d="M4062.065,4006.34a36.015,36.015,0,0,0,5.68,5.836c3.653,2.823,6.171,3.756,9.138,2.379,4.3-2,.345-6.218-2.995-9.559a46.952,46.952,0,0,0-8.484-7Z" transform="translate(-4062.065 -3998)" fill="#2b79e6"/>
        </g>
      </g>
      <g id="Group_287" data-name="Group 287" transform="translate(33.038 0)">
        <g id="Group_286" data-name="Group 286">
          <path id="Path_299" data-name="Path 299" d="M4035.438,3726.574s3.839-5.182,5.068-8.868,1.959.23,7.256,4.261c2.765,2.1,9.751,4.722,9.751,4.722s1.594-7-.883-10.6c-5.873-8.523-17.887-7.964-21.536,2A10.057,10.057,0,0,0,4035.438,3726.574Z" transform="translate(-4034.354 -3710.128)" fill="#2a2873"/>
        </g>
      </g>
      <g id="Group_289" data-name="Group 289" transform="translate(37.924 109.6)">
        <g id="Group_288" data-name="Group 288">
          <path id="Path_300" data-name="Path 300" d="M4053.36,3992.867l4.6,3.8a11.034,11.034,0,0,1,2.4,2.8c1.5,2.8-3.678,8.48-7.041,5.141s-6.361-6.94-6.361-6.94Z" transform="translate(-4046.96 -3992.867)" fill="#f59762"/>
        </g>
      </g>
      <g id="Group_291" data-name="Group 291" transform="translate(0 81.83)">
        <g id="Group_290" data-name="Group 290">
          <path id="Path_301" data-name="Path 301" d="M3979.751,3955c-12.528-6.3-20.2-8.57-28.25-19.913-2.048-2.887-2.872-7.666-2.075-10.025.981-2.9,5.222-4.644,10.212-3.454,4.194,1,32.323,23.038,36.714,27.19,1.892,1.791-3.875,10.742-8.6,9.2A46.964,46.964,0,0,1,3979.751,3955Z" transform="translate(-3949.126 -3921.227)" fill="#8fd5e5"/>
        </g>
      </g>
    </g>
    <g id="Group_308" data-name="Group 308" transform="translate(3727.74 3746.821)">
      <g id="Group_294" data-name="Group 294">
        <g id="Group_293" data-name="Group 293">
          <path id="Path_302" data-name="Path 302" d="M4025.2,4056.164H3903.781v36.707H4025.2c4.8,0,8.693-5.634,8.693-12.585v-11.537C4033.893,4061.8,4030,4056.164,4025.2,4056.164Z" transform="translate(-3903.781 -4056.164)" fill="#ff645f"/>
        </g>
      </g>
      <g id="Group_307" data-name="Group 307" transform="translate(0.12 4.251)">
        <path id="Path_303" data-name="Path 303" d="M4023.941,4067.13H3904.091v28.206h119.851C4027.629,4095.335,4027.629,4067.13,4023.941,4067.13Z" transform="translate(-3904.091 -4067.13)" fill="#fff"/>
        <g id="Group_306" data-name="Group 306" clip-path="url(#clip-path-2)">
          <g id="Group_305" data-name="Group 305" transform="translate(-1.812 3.354)">
            <g id="Group_296" data-name="Group 296">
              <g id="Group_295" data-name="Group 295">
                <rect id="Rectangle_96" data-name="Rectangle 96" width="127.216" height="1.481" fill="#b3e3ef"/>
              </g>
            </g>
            <g id="Group_298" data-name="Group 298" transform="translate(0 4.939)">
              <g id="Group_297" data-name="Group 297">
                <rect id="Rectangle_97" data-name="Rectangle 97" width="127.216" height="1.481" fill="#b3e3ef"/>
              </g>
            </g>
            <g id="Group_300" data-name="Group 300" transform="translate(0 9.878)">
              <g id="Group_299" data-name="Group 299">
                <rect id="Rectangle_98" data-name="Rectangle 98" width="127.216" height="1.481" fill="#b3e3ef"/>
              </g>
            </g>
            <g id="Group_302" data-name="Group 302" transform="translate(0 14.817)">
              <g id="Group_301" data-name="Group 301">
                <rect id="Rectangle_99" data-name="Rectangle 99" width="127.216" height="1.481" fill="#b3e3ef"/>
              </g>
            </g>
            <g id="Group_304" data-name="Group 304" transform="translate(0 19.756)">
              <g id="Group_303" data-name="Group 303">
                <rect id="Rectangle_100" data-name="Rectangle 100" width="127.216" height="1.481" fill="#b3e3ef"/>
              </g>
            </g>
          </g>
        </g>
      </g>
    </g>
  </g>
</svg>
